<svg xmlns="http://www.w3.org/2000/svg" width="1200" height="800" viewBox="0 0 2229.9565 177.12302"><rect x="0" y="0" width="2229.9565" height="177.12302" fill="#FFFFFF"/><defs><marker id="arrow-0" viewBox="0 0 10 10" refX="5" refY="5" markerUnits="userSpaceOnUse" markerWidth="8" markerHeight="8" orient="auto"><path d="M 0 0 L 10 5 L 0 10 z" fill="#2F3B4D" stroke="#2F3B4D" stroke-width="1" stroke-dasharray="1,0"/></marker><marker id="arrow-start-0" viewBox="0 0 10 10" refX="4.5" refY="5" markerUnits="userSpaceOnUse" markerWidth="8" markerHeight="8" orient="auto"><path d="M 0 5 L 10 10 L 10 0 z" fill="#2F3B4D" stroke="#2F3B4D" stroke-width="1" stroke-dasharray="1,0"/></marker></defs><path id="edge-0" class="edgePath" data-edge-id="edge-0" d="M 112.800,39.631 L 121.486,39.631 Q 128.593,39.631 135.648,40.486 L 206.755,49.099 Q 213.810,49.954 220.917,49.954 L 229.603,49.954" fill="none" stroke="#2F3B4D" stroke-width="2"    stroke-linecap="round" stroke-linejoin="round" /><g transform="translate(229.60 49.95) rotate(0.00)"><polygon points="0,0 -7.50,3.90 -7.50,-3.90" fill="#2F3B4D" stroke="#2F3B4D" stroke-width="2" stroke-linejoin="round" stroke-linecap="round"/></g><path id="edge-1" class="edgePath" data-edge-id="edge-1" d="M 436.406,62.000 L 436.406,71.377 Q 436.406,77.793 434.390,83.885 L 433.942,85.238 Q 431.926,91.330 431.926,97.746 L 431.926,107.123" fill="none" stroke="#2F3B4D" stroke-width="2"   stroke-dasharray="4 4" stroke-linecap="round" stroke-linejoin="round" /><g transform="translate(431.93 107.12) rotate(90.00)"><polygon points="0,0 -7.50,3.90 -7.50,-3.90" fill="#2F3B4D" stroke="#2F3B4D" stroke-width="2" stroke-linejoin="round" stroke-linecap="round"/></g><path id="edge-2" class="edgePath" data-edge-id="edge-2" d="M 643.209,39.631 L 651.895,39.631 Q 659.002,39.631 666.057,40.486 L 737.164,49.099 Q 744.219,49.954 751.326,49.954 L 760.012,49.954" fill="none" stroke="#2F3B4D" stroke-width="3.5"    stroke-linecap="round" stroke-linejoin="round" /><g transform="translate(760.01 49.95) rotate(0.00)"><polygon points="0,0 -9.75,5.07 -9.75,-5.07" fill="#2F3B4D" stroke="#2F3B4D" stroke-width="3.5" stroke-linejoin="round" stroke-linecap="round"/></g><path id="edge-3" class="edgePath" data-edge-id="edge-3" d="M 1086.415,44.533 L 1095.733,44.533 Q 1102.208,44.533 1108.300,46.727 L 1109.653,47.214 Q 1115.745,49.408 1122.219,49.408 L 1131.538,49.408" fill="none" stroke="#2F3B4D" stroke-width="2"    stroke-linecap="round" stroke-linejoin="round" /><g transform="translate(1086.41 44.53) rotate(180.00)"><polygon points="0,0 -7.50,3.90 -7.50,-3.90" fill="#2F3B4D" stroke="#2F3B4D" stroke-width="2" stroke-linejoin="round" stroke-linecap="round"/></g><g transform="translate(1131.54 49.41) rotate(0.00)"><polygon points="0,0 -7.50,3.90 -7.50,-3.90" fill="#2F3B4D" stroke="#2F3B4D" stroke-width="2" stroke-linejoin="round" stroke-linecap="round"/></g><path id="edge-4" class="edgePath" data-edge-id="edge-4" d="M 1422.101,42.523 L 1430.787,42.523 Q 1437.894,42.523 1444.890,43.777 L 1471.315,48.512 Q 1478.311,49.765 1485.418,49.765 L 1494.104,49.765" fill="none" stroke="#2F3B4D" stroke-width="2"    stroke-linecap="round" stroke-linejoin="round" /><path id="edge-5" class="edgePath" data-edge-id="edge-5" d="M 1716.167,62.000 L 1716.167,71.108 Q 1716.167,77.793 1713.414,83.885 L 1712.802,85.238 Q 1710.049,91.330 1710.049,98.015 L 1710.049,107.123" fill="none" stroke="#2F3B4D" stroke-width="2"   stroke-dasharray="4 4" stroke-linecap="round" stroke-linejoin="round" /><path id="edge-6" class="edgePath" data-edge-id="edge-6" d="M 2010.274,42.394 L 2018.960,42.394 Q 2026.067,42.394 2033.048,43.727 L 2048.541,46.684 Q 2055.521,48.016 2062.628,48.016 L 2071.315,48.016" fill="none" stroke="#2F3B4D" stroke-width="3.5"    stroke-linecap="round" stroke-linejoin="round" /><rect x="8.00" y="8.00" width="104.80" height="54.00" rx="3" ry="3" fill="#ECECFF" stroke="#7B88A8" stroke-width="1" stroke-linejoin="round" stroke-linecap="round"/><text x="60.40" y="39.00" text-anchor="middle" font-family="trebuchet ms,verdana,arial,Noto Color Emoji,Apple Color Emoji,Segoe UI Emoji,sans-serif" font-size="16" fill="#333333"><tspan x="60.40" dy="0.00">Solid</tspan></text><rect x="229.60" y="27.59" width="104.80" height="54.00" rx="3" ry="3" fill="#ECECFF" stroke="#7B88A8" stroke-width="1" stroke-linejoin="round" stroke-linecap="round"/><text x="282.00" y="58.59" text-anchor="middle" font-family="trebuchet ms,verdana,arial,Noto Color Emoji,Apple Color Emoji,Segoe UI Emoji,sans-serif" font-size="16" fill="#333333"><tspan x="282.00" dy="0.00">Arrow</tspan></text><rect x="379.53" y="8.00" width="113.76" height="54.00" rx="3" ry="3" fill="#ECECFF" stroke="#7B88A8" stroke-width="1" stroke-linejoin="round" stroke-linecap="round"/><text x="436.41" y="39.00" text-anchor="middle" font-family="trebuchet ms,verdana,arial,Noto Color Emoji,Apple Color Emoji,Segoe UI Emoji,sans-serif" font-size="16" fill="#333333"><tspan x="436.41" dy="0.00">Dotted</tspan></text><rect x="379.53" y="107.12" width="104.80" height="54.00" rx="3" ry="3" fill="#ECECFF" stroke="#7B88A8" stroke-width="1" stroke-linejoin="round" stroke-linecap="round"/><text x="431.93" y="138.12" text-anchor="middle" font-family="trebuchet ms,verdana,arial,Noto Color Emoji,Apple Color Emoji,Segoe UI Emoji,sans-serif" font-size="16" fill="#333333"><tspan x="431.93" dy="0.00">Arrow</tspan></text><rect x="538.41" y="8.00" width="104.80" height="54.00" rx="3" ry="3" fill="#ECECFF" stroke="#7B88A8" stroke-width="1" stroke-linejoin="round" stroke-linecap="round"/><text x="590.81" y="39.00" text-anchor="middle" font-family="trebuchet ms,verdana,arial,Noto Color Emoji,Apple Color Emoji,Segoe UI Emoji,sans-serif" font-size="16" fill="#333333"><tspan x="590.81" dy="0.00">Thick</tspan></text><rect x="760.01" y="27.59" width="104.80" height="54.00" rx="3" ry="3" fill="#ECECFF" stroke="#7B88A8" stroke-width="1" stroke-linejoin="round" stroke-linecap="round"/><text x="812.41" y="58.59" text-anchor="middle" font-family="trebuchet ms,verdana,arial,Noto Color Emoji,Apple Color Emoji,Segoe UI Emoji,sans-serif" font-size="16" fill="#333333"><tspan x="812.41" dy="0.00">Arrow</tspan></text><rect x="909.93" y="8.00" width="176.48" height="54.00" rx="3" ry="3" fill="#ECECFF" stroke="#7B88A8" stroke-width="1" stroke-linejoin="round" stroke-linecap="round"/><text x="998.17" y="39.00" text-anchor="middle" font-family="trebuchet ms,verdana,arial,Noto Color Emoji,Apple Color Emoji,Segoe UI Emoji,sans-serif" font-size="16" fill="#333333"><tspan x="998.17" dy="0.00">Bidirectional</tspan></text><rect x="1131.54" y="27.59" width="95.84" height="54.00" rx="3" ry="3" fill="#ECECFF" stroke="#7B88A8" stroke-width="1" stroke-linejoin="round" stroke-linecap="round"/><text x="1179.46" y="58.59" text-anchor="middle" font-family="trebuchet ms,verdana,arial,Noto Color Emoji,Apple Color Emoji,Segoe UI Emoji,sans-serif" font-size="16" fill="#333333"><tspan x="1179.46" dy="0.00">Both</tspan></text><rect x="1272.50" y="8.00" width="149.60" height="54.00" rx="3" ry="3" fill="#ECECFF" stroke="#7B88A8" stroke-width="1" stroke-linejoin="round" stroke-linecap="round"/><text x="1347.30" y="39.00" text-anchor="middle" font-family="trebuchet ms,verdana,arial,Noto Color Emoji,Apple Color Emoji,Segoe UI Emoji,sans-serif" font-size="16" fill="#333333"><tspan x="1347.30" dy="0.00">Undirected</tspan></text><rect x="1494.10" y="27.59" width="95.84" height="54.00" rx="3" ry="3" fill="#ECECFF" stroke="#7B88A8" stroke-width="1" stroke-linejoin="round" stroke-linecap="round"/><text x="1542.02" y="58.59" text-anchor="middle" font-family="trebuchet ms,verdana,arial,Noto Color Emoji,Apple Color Emoji,Segoe UI Emoji,sans-serif" font-size="16" fill="#333333"><tspan x="1542.02" dy="0.00">Line</tspan></text><rect x="1635.07" y="8.00" width="169.52" height="54.00" rx="3" ry="3" fill="#ECECFF" stroke="#7B88A8" stroke-width="1" stroke-linejoin="round" stroke-linecap="round"/><text x="1719.83" y="39.00" text-anchor="middle" font-family="trebuchet ms,verdana,arial,Noto Color Emoji,Apple Color Emoji,Segoe UI Emoji,sans-serif" font-size="16" fill="#333333"><tspan x="1719.83" dy="0.00">Dotted Line</tspan></text><rect x="1635.07" y="107.12" width="142.64" height="54.00" rx="3" ry="3" fill="#ECECFF" stroke="#7B88A8" stroke-width="1" stroke-linejoin="round" stroke-linecap="round"/><text x="1706.39" y="138.12" text-anchor="middle" font-family="trebuchet ms,verdana,arial,Noto Color Emoji,Apple Color Emoji,Segoe UI Emoji,sans-serif" font-size="16" fill="#333333"><tspan x="1706.39" dy="0.00">No Arrow</tspan></text><rect x="1849.71" y="8.00" width="160.56" height="54.00" rx="3" ry="3" fill="#ECECFF" stroke="#7B88A8" stroke-width="1" stroke-linejoin="round" stroke-linecap="round"/><text x="1929.99" y="39.00" text-anchor="middle" font-family="trebuchet ms,verdana,arial,Noto Color Emoji,Apple Color Emoji,Segoe UI Emoji,sans-serif" font-size="16" fill="#333333"><tspan x="1929.99" dy="0.00">Thick Line</tspan></text><rect x="2071.31" y="27.59" width="142.64" height="54.00" rx="3" ry="3" fill="#ECECFF" stroke="#7B88A8" stroke-width="1" stroke-linejoin="round" stroke-linecap="round"/><text x="2142.64" y="58.59" text-anchor="middle" font-family="trebuchet ms,verdana,arial,Noto Color Emoji,Apple Color Emoji,Segoe UI Emoji,sans-serif" font-size="16" fill="#333333"><tspan x="2142.64" dy="0.00">No Arrow</tspan></text></svg>