<svg xmlns="http://www.w3.org/2000/svg" width="1200" height="800" viewBox="0 0 1595.6938 791.6572"><rect x="0" y="0" width="1595.6938" height="791.6572" fill="#FFFFFF"/><defs><marker id="arrow-0" viewBox="0 0 10 10" refX="5" refY="5" markerUnits="userSpaceOnUse" markerWidth="8" markerHeight="8" orient="auto"><path d="M 0 0 L 10 5 L 0 10 z" fill="#2F3B4D" stroke="#2F3B4D" stroke-width="1" stroke-dasharray="1,0"/></marker><marker id="arrow-start-0" viewBox="0 0 10 10" refX="4.5" refY="5" markerUnits="userSpaceOnUse" markerWidth="8" markerHeight="8" orient="auto"><path d="M 0 5 L 10 10 L 10 0 z" fill="#2F3B4D" stroke="#2F3B4D" stroke-width="1" stroke-dasharray="1,0"/></marker></defs><path id="edge-0" class="edgePath" data-edge-id="edge-0" d="M 431.686,372.581 L 431.686,356.649 Q 431.686,346.649 421.686,346.649 L 198.840,346.649 Q 188.840,346.649 188.840,356.649 L 188.840,381.242 Q 188.840,389.117 180.965,389.117 L 171.340,389.117" fill="none" stroke="#2F3B4D" stroke-width="2"    stroke-linecap="round" stroke-linejoin="round" /><g transform="translate(171.34 389.12) rotate(180.00)"><polygon points="0,0 -7.50,3.90 -7.50,-3.90" fill="#2F3B4D" stroke="#2F3B4D" stroke-width="2" stroke-linejoin="round" stroke-linecap="round"/></g><rect data-edge-id="edge-0" data-label-kind="center" x="218.06" y="348.65" width="149.41" height="52.40" rx="2" ry="2" fill="rgba(248,250,252, 0.92)" fill-opacity="0.00" stroke="#7B88A8" stroke-opacity="0.00" stroke-width="0.8"/><g class="edgeLabel" data-edge-id="edge-0" data-label-kind="center"><text x="292.76" y="366.85" text-anchor="middle" font-family="trebuchet ms,verdana,arial,Noto Color Emoji,Apple Color Emoji,Segoe UI Emoji,sans-serif" font-size="16" fill="#333333"><tspan x="292.76" dy="0.00">1. Prompt to</tspan><tspan x="292.76" dy="24.00">authorise sync</tspan></text></g><path id="edge-1" class="edgePath" data-edge-id="edge-1" d="M 622.427,339.723 L 632.027,339.723 L 634.261,339.723 Q 636.088,339.723 636.088,341.550 L 636.088,468.782 Q 636.088,478.782 626.088,478.782 L 433.686,478.782 Q 423.686,478.782 423.686,468.782 L 423.686,280.176 Q 423.686,270.176 433.686,270.176 L 617.927,270.176 L 840.306,270.176" fill="none" stroke="#2F3B4D" stroke-width="2"    stroke-linecap="round" stroke-linejoin="round" /><g transform="translate(840.31 270.18) rotate(0.00)"><polygon points="0,0 -7.50,3.90 -7.50,-3.90" fill="#2F3B4D" stroke="#2F3B4D" stroke-width="2" stroke-linejoin="round" stroke-linecap="round"/></g><rect data-edge-id="edge-1" data-label-kind="center" x="438.51" y="480.78" width="145.40" height="76.40" rx="2" ry="2" fill="rgba(248,250,252, 0.92)" fill-opacity="0.00" stroke="#7B88A8" stroke-opacity="0.00" stroke-width="0.8"/><g class="edgeLabel" data-edge-id="edge-1" data-label-kind="center"><text x="511.21" y="498.98" text-anchor="middle" font-family="trebuchet ms,verdana,arial,Noto Color Emoji,Apple Color Emoji,Segoe UI Emoji,sans-serif" font-size="16" fill="#333333"><tspan x="511.21" dy="0.00">2. Check</tspan><tspan x="511.21" dy="24.00">connectivity &amp;</tspan><tspan x="511.21" dy="24.00">compatibility</tspan></text></g><path id="edge-2" class="edgePath" data-edge-id="edge-2" d="M 980.453,212.813 L 1146.200,212.813 Q 1156.200,212.813 1156.200,202.813 L 1156.200,117.100 Q 1156.200,107.100 1166.200,107.100 L 1193.586,107.100" fill="none" stroke="#2F3B4D" stroke-width="2"    stroke-linecap="round" stroke-linejoin="round" /><g transform="translate(1193.59 107.10) rotate(0.00)"><polygon points="0,0 -7.50,3.90 -7.50,-3.90" fill="#2F3B4D" stroke="#2F3B4D" stroke-width="2" stroke-linejoin="round" stroke-linecap="round"/></g><rect data-edge-id="edge-2" data-label-kind="center" x="993.84" y="134.41" width="154.36" height="76.40" rx="2" ry="2" fill="rgba(248,250,252, 0.92)" fill-opacity="0.00" stroke="#7B88A8" stroke-opacity="0.00" stroke-width="0.8"/><g class="edgeLabel" data-edge-id="edge-2" data-label-kind="center"><text x="1071.02" y="152.61" text-anchor="middle" font-family="trebuchet ms,verdana,arial,Noto Color Emoji,Apple Color Emoji,Segoe UI Emoji,sans-serif" font-size="16" fill="#333333"><tspan x="1071.02" dy="0.00">3. Fetch</tspan><tspan x="1071.02" dy="24.00">stored elements</tspan><tspan x="1071.02" dy="24.00">for OPAQUE</tspan></text></g><path id="edge-3" class="edgePath" data-edge-id="edge-3" d="M 970.539,196.977 L 970.539,184.427 Q 970.539,179.477 975.489,179.477 L 976.589,179.477 Q 981.539,179.477 981.539,174.527 L 981.539,162.344 Q 981.539,152.344 971.539,152.344 L 587.887,152.344 Q 577.887,152.344 577.887,162.344 L 577.887,286.911" fill="none" stroke="#2F3B4D" stroke-width="2"    stroke-linecap="round" stroke-linejoin="round" /><g transform="translate(577.89 286.91) rotate(90.00)"><polygon points="0,0 -7.50,3.90 -7.50,-3.90" fill="#2F3B4D" stroke="#2F3B4D" stroke-width="2" stroke-linejoin="round" stroke-linecap="round"/></g><rect data-edge-id="edge-3" data-label-kind="center" x="660.53" y="121.94" width="203.17" height="28.40" rx="2" ry="2" fill="rgba(248,250,252, 0.92)" fill-opacity="0.00" stroke="#7B88A8" stroke-opacity="0.00" stroke-width="0.8"/><g class="edgeLabel" data-edge-id="edge-3" data-label-kind="center"><text x="762.11" y="140.14" text-anchor="middle" font-family="trebuchet ms,verdana,arial,Noto Color Emoji,Apple Color Emoji,Segoe UI Emoji,sans-serif" font-size="16" fill="#333333"><tspan x="762.11" dy="0.00">4. Sends challenge</tspan></text></g><path id="edge-4" class="edgePath" data-edge-id="edge-4" d="M 171.340,389.117 L 171.340,395.992 Q 171.340,401.617 176.965,401.617 L 180.965,401.617 Q 188.840,401.617 188.840,409.492 L 188.840,499.599 Q 188.840,509.599 198.840,509.599 L 404.267,509.599 Q 414.267,509.599 414.267,499.599 L 414.267,384.451 Q 414.267,376.576 422.142,376.576 L 431.767,376.576" fill="none" stroke="#2F3B4D" stroke-width="2"    stroke-linecap="round" stroke-linejoin="round" /><g transform="translate(431.77 376.58) rotate(0.00)"><polygon points="0,0 -7.50,3.90 -7.50,-3.90" fill="#2F3B4D" stroke="#2F3B4D" stroke-width="2" stroke-linejoin="round" stroke-linecap="round"/></g><rect data-edge-id="edge-4" data-label-kind="center" x="228.14" y="511.60" width="154.36" height="100.40" rx="2" ry="2" fill="rgba(248,250,252, 0.92)" fill-opacity="0.00" stroke="#7B88A8" stroke-opacity="0.00" stroke-width="0.8"/><g class="edgeLabel" data-edge-id="edge-4" data-label-kind="center"><text x="305.32" y="529.80" text-anchor="middle" font-family="trebuchet ms,verdana,arial,Noto Color Emoji,Apple Color Emoji,Segoe UI Emoji,sans-serif" font-size="16" fill="#333333"><tspan x="305.32" dy="0.00">5. Enter</tspan><tspan x="305.32" dy="24.00">master password</tspan><tspan x="305.32" dy="24.00">and confirm</tspan><tspan x="305.32" dy="24.00">sync</tspan></text></g><path id="edge-5" class="edgePath" data-edge-id="edge-5" d="M 623.666,401.719 L 633.291,401.719 Q 641.166,401.719 648.573,404.393 L 756.998,443.550 Q 764.405,446.225 772.280,446.225 L 781.905,446.225" fill="none" stroke="#2F3B4D" stroke-width="2"    stroke-linecap="round" stroke-linejoin="round" /><g transform="translate(781.90 446.23) rotate(0.00)"><polygon points="0,0 -7.50,3.90 -7.50,-3.90" fill="#2F3B4D" stroke="#2F3B4D" stroke-width="2" stroke-linejoin="round" stroke-linecap="round"/></g><rect data-edge-id="edge-5" data-label-kind="center" x="655.29" y="447.60" width="129.48" height="28.40" rx="2" ry="2" fill="rgba(248,250,252, 0.92)" fill-opacity="0.00" stroke="#7B88A8" stroke-opacity="0.00" stroke-width="0.8"/><g class="edgeLabel" data-edge-id="edge-5" data-label-kind="center"><text x="720.04" y="465.80" text-anchor="middle" font-family="trebuchet ms,verdana,arial,Noto Color Emoji,Apple Color Emoji,Segoe UI Emoji,sans-serif" font-size="16" fill="#333333"><tspan x="720.04" dy="0.00">6. Password</tspan></text></g><path id="edge-6" class="edgePath" data-edge-id="edge-6" d="M 930.610,522.295 L 930.610,539.795 L 930.610,560.218 Q 930.610,570.218 920.610,570.218 L 655.588,570.218 Q 645.588,570.218 645.588,560.218 L 645.588,380.456 Q 645.588,372.581 637.713,372.581 L 628.088,372.581" fill="none" stroke="#2F3B4D" stroke-width="2"    stroke-linecap="round" stroke-linejoin="round" /><g transform="translate(628.09 372.58) rotate(180.00)"><polygon points="0,0 -7.50,3.90 -7.50,-3.90" fill="#2F3B4D" stroke="#2F3B4D" stroke-width="2" stroke-linejoin="round" stroke-linecap="round"/></g><rect data-edge-id="edge-6" data-label-kind="center" x="725.06" y="572.22" width="95.65" height="28.40" rx="2" ry="2" fill="rgba(248,250,252, 0.92)" fill-opacity="0.00" stroke="#7B88A8" stroke-opacity="0.00" stroke-width="0.8"/><g class="edgeLabel" data-edge-id="edge-6" data-label-kind="center"><text x="772.88" y="590.42" text-anchor="middle" font-family="trebuchet ms,verdana,arial,Noto Color Emoji,Apple Color Emoji,Segoe UI Emoji,sans-serif" font-size="16" fill="#333333"><tspan x="772.88" dy="0.00">7. Ke1</tspan></text></g><path id="edge-7" class="edgePath" data-edge-id="edge-7" d="M 622.728,340.581 L 810.875,340.581 Q 820.875,340.581 820.875,330.581 L 820.875,286.779 Q 820.875,276.813 830.842,276.813 L 843.023,276.813" fill="none" stroke="#2F3B4D" stroke-width="2"    stroke-linecap="round" stroke-linejoin="round" /><g transform="translate(843.02 276.81) rotate(0.00)"><polygon points="0,0 -7.50,3.90 -7.50,-3.90" fill="#2F3B4D" stroke="#2F3B4D" stroke-width="2" stroke-linejoin="round" stroke-linecap="round"/></g><rect data-edge-id="edge-7" data-label-kind="center" x="658.88" y="342.48" width="95.65" height="28.40" rx="2" ry="2" fill="rgba(248,250,252, 0.92)" fill-opacity="0.00" stroke="#7B88A8" stroke-opacity="0.00" stroke-width="0.8"/><g class="edgeLabel" data-edge-id="edge-7" data-label-kind="center"><text x="706.70" y="360.68" text-anchor="middle" font-family="trebuchet ms,verdana,arial,Noto Color Emoji,Apple Color Emoji,Segoe UI Emoji,sans-serif" font-size="16" fill="#333333"><tspan x="706.70" dy="0.00">8. Ke1</tspan></text></g><path id="edge-8" class="edgePath" data-edge-id="edge-8" d="M 911.738,320.613 L 780.088,320.613 Q 770.088,320.613 770.088,330.613 L 770.088,368.613 Q 770.088,378.613 780.088,378.613 L 945.610,378.613 Q 955.610,378.613 955.610,388.613 L 955.610,415.923 Q 955.610,425.923 965.610,425.923 L 1179.610,425.923 Q 1189.610,425.923 1189.610,435.923 L 1189.610,510.354 Q 1189.610,520.354 1199.610,520.354 L 1365.132,520.354 Q 1375.132,520.354 1375.132,510.354 L 1375.132,343.232 Q 1375.132,333.232 1365.132,333.232 L 1286.691,333.232 Q 1282.371,333.232 1282.371,337.552 L 1282.371,342.832" fill="none" stroke="#2F3B4D" stroke-width="2"    stroke-linecap="round" stroke-linejoin="round" /><g transform="translate(1282.37 342.83) rotate(90.00)"><polygon points="0,0 -7.50,3.90 -7.50,-3.90" fill="#2F3B4D" stroke="#2F3B4D" stroke-width="2" stroke-linejoin="round" stroke-linecap="round"/></g><rect data-edge-id="edge-8" data-label-kind="center" x="1172.32" y="522.35" width="206.12" height="172.40" rx="2" ry="2" fill="rgba(248,250,252, 0.92)" fill-opacity="0.00" stroke="#7B88A8" stroke-opacity="0.00" stroke-width="0.8"/><g class="edgeLabel" data-edge-id="edge-8" data-label-kind="center"><text x="1275.38" y="540.55" text-anchor="middle" font-family="trebuchet ms,verdana,arial,Noto Color Emoji,Apple Color Emoji,Segoe UI Emoji,sans-serif" font-size="16" fill="#333333"><tspan x="1275.38" dy="0.00">9.</tspan><tspan x="1275.38" dy="24.00">self_identity,</tspan><tspan x="1275.38" dy="24.00">self_private_key,</tspan><tspan x="1275.38" dy="24.00">self_public_key,</tspan><tspan x="1275.38" dy="24.00">client_record,</tspan><tspan x="1275.38" dy="24.00">credential_identifier,</tspan><tspan x="1275.38" dy="24.00">oprf_seed, ke1</tspan></text></g><path id="edge-9" class="edgePath" data-edge-id="edge-9" d="M 1282.371,342.832 L 1282.371,330.612 Q 1282.371,320.613 1292.369,320.613 L 1345.948,320.613 Q 1346.716,320.613 1346.716,321.381 L 1346.716,321.552 Q 1346.716,322.320 1345.948,322.320 L 1168.955,322.320 Q 1163.196,322.320 1163.196,316.561 L 1163.196,315.282 Q 1163.196,309.523 1157.437,309.523 L 1004.130,309.523 Q 995.539,309.523 995.539,318.114 L 995.539,320.023 Q 995.539,328.613 986.948,328.613 L 828.657,328.613 Q 827.937,328.613 827.937,329.333 L 827.937,329.493 Q 827.937,330.213 828.657,330.213 L 907.418,330.213 Q 911.738,330.213 911.738,325.893 L 911.738,320.613" fill="none" stroke="#2F3B4D" stroke-width="2"    stroke-linecap="round" stroke-linejoin="round" /><g transform="translate(911.74 320.61) rotate(-90.00)"><polygon points="0,0 -7.50,3.90 -7.50,-3.90" fill="#2F3B4D" stroke="#2F3B4D" stroke-width="2" stroke-linejoin="round" stroke-linecap="round"/></g><rect data-edge-id="edge-9" data-label-kind="center" x="1014.38" y="311.21" width="115.57" height="28.40" rx="2" ry="2" fill="rgba(248,250,252, 0.92)" fill-opacity="0.00" stroke="#7B88A8" stroke-opacity="0.00" stroke-width="0.8"/><g class="edgeLabel" data-edge-id="edge-9" data-label-kind="center"><text x="1072.16" y="329.41" text-anchor="middle" font-family="trebuchet ms,verdana,arial,Noto Color Emoji,Apple Color Emoji,Segoe UI Emoji,sans-serif" font-size="16" fill="#333333"><tspan x="1072.16" dy="0.00">10. Ke2</tspan></text></g><path id="edge-10" class="edgePath" data-edge-id="edge-10" d="M 970.539,196.977 L 970.539,179.477 L 970.539,165.967 Q 970.539,155.967 960.539,155.967 L 621.088,155.967 Q 611.088,155.967 611.088,165.967 L 611.088,299.856 L 611.088,317.356" fill="none" stroke="#2F3B4D" stroke-width="2"    stroke-linecap="round" stroke-linejoin="round" /><g transform="translate(611.09 317.36) rotate(90.00)"><polygon points="0,0 -7.50,3.90 -7.50,-3.90" fill="#2F3B4D" stroke="#2F3B4D" stroke-width="2" stroke-linejoin="round" stroke-linecap="round"/></g><rect data-edge-id="edge-10" data-label-kind="center" x="630.69" y="157.97" width="115.57" height="28.40" rx="2" ry="2" fill="rgba(248,250,252, 0.92)" fill-opacity="0.00" stroke="#7B88A8" stroke-opacity="0.00" stroke-width="0.8"/><g class="edgeLabel" data-edge-id="edge-10" data-label-kind="center"><text x="688.48" y="176.17" text-anchor="middle" font-family="trebuchet ms,verdana,arial,Noto Color Emoji,Apple Color Emoji,Segoe UI Emoji,sans-serif" font-size="16" fill="#333333"><tspan x="688.48" dy="0.00">11. Ke2</tspan></text></g><path id="edge-11" class="edgePath" data-edge-id="edge-11" d="M 611.088,427.807 L 611.088,634.111 Q 611.088,644.111 621.088,644.111 L 826.937,644.111 Q 836.937,644.111 836.937,654.111 L 836.937,677.915" fill="none" stroke="#2F3B4D" stroke-width="2"    stroke-linecap="round" stroke-linejoin="round" /><g transform="translate(836.94 677.91) rotate(90.00)"><polygon points="0,0 -7.50,3.90 -7.50,-3.90" fill="#2F3B4D" stroke="#2F3B4D" stroke-width="2" stroke-linejoin="round" stroke-linecap="round"/></g><rect data-edge-id="edge-11" data-label-kind="center" x="456.83" y="569.36" width="152.36" height="100.40" rx="2" ry="2" fill="rgba(248,250,252, 0.92)" fill-opacity="0.00" stroke="#7B88A8" stroke-opacity="0.00" stroke-width="0.8"/><g class="edgeLabel" data-edge-id="edge-11" data-label-kind="center"><text x="533.01" y="587.56" text-anchor="middle" font-family="trebuchet ms,verdana,arial,Noto Color Emoji,Apple Color Emoji,Segoe UI Emoji,sans-serif" font-size="16" fill="#333333"><tspan x="533.01" dy="0.00">12.</tspan><tspan x="533.01" dy="24.00">self_identity,</tspan><tspan x="533.01" dy="24.00">server_identity,</tspan><tspan x="533.01" dy="24.00">ke2</tspan></text></g><path id="edge-12" class="edgePath" data-edge-id="edge-12" d="M 835.937,690.896 L 818.437,690.896 L 18.000,690.896 Q 8.000,690.896 8.000,680.896 L 8.000,266.881 Q 8.000,256.881 18.000,256.881 L 522.012,256.881 Q 529.887,256.881 529.887,264.756 L 529.887,274.381" fill="none" stroke="#2F3B4D" stroke-width="2"    stroke-linecap="round" stroke-linejoin="round" /><g transform="translate(529.89 274.38) rotate(90.00)"><polygon points="0,0 -7.50,3.90 -7.50,-3.90" fill="#2F3B4D" stroke="#2F3B4D" stroke-width="2" stroke-linejoin="round" stroke-linecap="round"/></g><rect data-edge-id="edge-12" data-label-kind="center" x="137.95" y="692.90" width="124.53" height="76.40" rx="2" ry="2" fill="rgba(248,250,252, 0.92)" fill-opacity="0.00" stroke="#7B88A8" stroke-opacity="0.00" stroke-width="0.8"/><g class="edgeLabel" data-edge-id="edge-12" data-label-kind="center"><text x="200.22" y="711.10" text-anchor="middle" font-family="trebuchet ms,verdana,arial,Noto Color Emoji,Apple Color Emoji,Segoe UI Emoji,sans-serif" font-size="16" fill="#333333"><tspan x="200.22" dy="0.00">13. Ke3,</tspan><tspan x="200.22" dy="24.00">session_key,</tspan><tspan x="200.22" dy="24.00">export_key</tspan></text></g><path id="edge-13" class="edgePath" data-edge-id="edge-13" d="M 622.427,339.723 L 622.427,280.176 Q 622.427,270.176 632.427,270.176 L 840.306,270.176" fill="none" stroke="#2F3B4D" stroke-width="2"    stroke-linecap="round" stroke-linejoin="round" /><g transform="translate(840.31 270.18) rotate(0.00)"><polygon points="0,0 -7.50,3.90 -7.50,-3.90" fill="#2F3B4D" stroke="#2F3B4D" stroke-width="2" stroke-linejoin="round" stroke-linecap="round"/></g><rect data-edge-id="edge-13" data-label-kind="center" x="624.33" y="284.20" width="115.57" height="28.40" rx="2" ry="2" fill="rgba(248,250,252, 0.92)" fill-opacity="0.00" stroke="#7B88A8" stroke-opacity="0.00" stroke-width="0.8"/><g class="edgeLabel" data-edge-id="edge-13" data-label-kind="center"><text x="682.11" y="302.40" text-anchor="middle" font-family="trebuchet ms,verdana,arial,Noto Color Emoji,Apple Color Emoji,Segoe UI Emoji,sans-serif" font-size="16" fill="#333333"><tspan x="682.11" dy="0.00">14. Ke3</tspan></text></g><path id="edge-14" class="edgePath" data-edge-id="edge-14" d="M 987.473,241.665 L 997.073,241.665 L 996.229,241.665 Q 995.539,241.665 995.539,242.355 L 995.539,318.613 Q 995.539,328.613 985.539,328.613 L 837.937,328.613 Q 827.937,328.613 827.937,318.613 L 827.937,285.789 L 827.937,318.613 Q 827.937,328.613 837.937,328.613 L 985.539,328.613 Q 995.539,328.613 995.539,318.613 L 995.539,295.789 Q 995.539,285.789 1005.539,285.789 L 1143.696,285.789 Q 1153.696,285.789 1153.696,275.789 L 1153.696,238.435 Q 1153.696,230.560 1161.571,230.560 L 1171.196,230.560" fill="none" stroke="#2F3B4D" stroke-width="2"    stroke-linecap="round" stroke-linejoin="round" /><g transform="translate(1171.20 230.56) rotate(0.00)"><polygon points="0,0 -7.50,3.90 -7.50,-3.90" fill="#2F3B4D" stroke="#2F3B4D" stroke-width="2" stroke-linejoin="round" stroke-linecap="round"/></g><rect data-edge-id="edge-14" data-label-kind="center" x="1011.23" y="255.39" width="115.57" height="28.40" rx="2" ry="2" fill="rgba(248,250,252, 0.92)" fill-opacity="0.00" stroke="#7B88A8" stroke-opacity="0.00" stroke-width="0.8"/><g class="edgeLabel" data-edge-id="edge-14" data-label-kind="center"><text x="1069.01" y="273.59" text-anchor="middle" font-family="trebuchet ms,verdana,arial,Noto Color Emoji,Apple Color Emoji,Segoe UI Emoji,sans-serif" font-size="16" fill="#333333"><tspan x="1069.01" dy="0.00">15. Ke3</tspan></text></g><path id="edge-15" class="edgePath" data-edge-id="edge-15" d="M 1171.268,234.038 L 1161.668,234.038 L 1162.508,234.038 Q 1163.196,234.038 1163.196,234.726 L 1163.196,312.320 Q 1163.196,322.320 1173.196,322.320 L 1336.716,322.320 Q 1346.716,322.320 1346.716,312.320 L 1346.716,219.914 L 1346.716,312.320 Q 1346.716,322.320 1336.716,322.320 L 1173.196,322.320 Q 1163.196,322.320 1163.196,312.320 L 1163.196,229.914 Q 1163.196,219.914 1153.196,219.914 L 1015.039,219.914 Q 1005.039,219.914 1005.039,229.914 L 1005.039,236.938 Q 1005.039,244.813 997.164,244.813 L 987.539,244.813" fill="none" stroke="#2F3B4D" stroke-width="2"    stroke-linecap="round" stroke-linejoin="round" /><g transform="translate(987.54 244.81) rotate(180.00)"><polygon points="0,0 -7.50,3.90 -7.50,-3.90" fill="#2F3B4D" stroke="#2F3B4D" stroke-width="2" stroke-linejoin="round" stroke-linecap="round"/></g><rect data-edge-id="edge-15" data-label-kind="center" x="1348.62" y="199.16" width="176.29" height="28.40" rx="2" ry="2" fill="rgba(248,250,252, 0.92)" fill-opacity="0.00" stroke="#7B88A8" stroke-opacity="0.00" stroke-width="0.8"/><g class="edgeLabel" data-edge-id="edge-15" data-label-kind="center"><text x="1436.76" y="217.36" text-anchor="middle" font-family="trebuchet ms,verdana,arial,Noto Color Emoji,Apple Color Emoji,Segoe UI Emoji,sans-serif" font-size="16" fill="#333333"><tspan x="1436.76" dy="0.00">16. session_key</tspan></text></g><circle cx="911.74" cy="244.81" r="75.80" fill="#ECECFF" stroke="#7B88A8" stroke-width="1" stroke-linejoin="round" stroke-linecap="round"/><circle cx="911.74" cy="244.81" r="71.80" fill="none" stroke="#7B88A8" stroke-width="1" stroke-linejoin="round" stroke-linecap="round"/><text x="911.74" y="248.81" text-anchor="middle" font-family="trebuchet ms,verdana,arial,Noto Color Emoji,Apple Color Emoji,Segoe UI Emoji,sans-serif" font-size="16" fill="#333333"><tspan x="911.74" dy="0.00">Baldr API</tspan></text><circle cx="529.89" cy="372.58" r="98.20" fill="#ECECFF" stroke="#7B88A8" stroke-width="1" stroke-linejoin="round" stroke-linecap="round"/><circle cx="529.89" cy="372.58" r="94.20" fill="none" stroke="#7B88A8" stroke-width="1" stroke-linejoin="round" stroke-linecap="round"/><text x="529.89" y="376.58" text-anchor="middle" font-family="trebuchet ms,verdana,arial,Noto Color Emoji,Apple Color Emoji,Segoe UI Emoji,sans-serif" font-size="16" fill="#333333"><tspan x="529.89" dy="0.00">Forseti Client</tspan></text><circle cx="862.85" cy="471.37" r="84.76" fill="#ECECFF" stroke="#7B88A8" stroke-width="1" stroke-linejoin="round" stroke-linecap="round"/><circle cx="862.85" cy="471.37" r="80.76" fill="none" stroke="#7B88A8" stroke-width="1" stroke-linejoin="round" stroke-linecap="round"/><text x="862.85" y="463.37" text-anchor="middle" font-family="trebuchet ms,verdana,arial,Noto Color Emoji,Apple Color Emoji,Segoe UI Emoji,sans-serif" font-size="16" fill="#333333"><tspan x="862.85" dy="0.00">GenerateKE1</tspan><tspan x="862.85" dy="24.00">Function</tspan></text><circle cx="1282.37" cy="427.59" r="84.76" fill="#ECECFF" stroke="#7B88A8" stroke-width="1" stroke-linejoin="round" stroke-linecap="round"/><circle cx="1282.37" cy="427.59" r="80.76" fill="none" stroke="#7B88A8" stroke-width="1" stroke-linejoin="round" stroke-linecap="round"/><text x="1282.37" y="419.59" text-anchor="middle" font-family="trebuchet ms,verdana,arial,Noto Color Emoji,Apple Color Emoji,Segoe UI Emoji,sans-serif" font-size="16" fill="#333333"><tspan x="1282.37" dy="0.00">GenerateKE2</tspan><tspan x="1282.37" dy="24.00">Function</tspan></text><circle cx="920.70" cy="690.90" r="84.76" fill="#ECECFF" stroke="#7B88A8" stroke-width="1" stroke-linejoin="round" stroke-linecap="round"/><circle cx="920.70" cy="690.90" r="80.76" fill="none" stroke="#7B88A8" stroke-width="1" stroke-linejoin="round" stroke-linecap="round"/><text x="920.70" y="682.90" text-anchor="middle" font-family="trebuchet ms,verdana,arial,Noto Color Emoji,Apple Color Emoji,Segoe UI Emoji,sans-serif" font-size="16" fill="#333333"><tspan x="920.70" dy="0.00">GenerateKE3</tspan><tspan x="920.70" dy="24.00">Function</tspan></text><ellipse cx="1476.60" cy="15.13" rx="103.09" ry="7.13" fill="#ECECFF" stroke="#7B88A8" stroke-width="1" stroke-linejoin="round" stroke-linecap="round"/><rect x="1373.51" y="15.13" width="206.19" height="45.14" fill="#ECECFF" stroke="#7B88A8" stroke-width="1" stroke-linejoin="round" stroke-linecap="round"/><ellipse cx="1476.60" cy="60.27" rx="103.09" ry="7.13" fill="none" stroke="#7B88A8" stroke-width="1" stroke-linejoin="round" stroke-linecap="round"/><text x="1476.60" y="41.70" text-anchor="middle" font-family="trebuchet ms,verdana,arial,Noto Color Emoji,Apple Color Emoji,Segoe UI Emoji,sans-serif" font-size="16" fill="#333333"><tspan x="1476.60" dy="0.00">Database File</tspan></text><ellipse cx="1306.54" cy="84.53" rx="112.95" ry="7.13" fill="#ECECFF" stroke="#7B88A8" stroke-width="1" stroke-linejoin="round" stroke-linecap="round"/><rect x="1193.59" y="84.53" width="225.90" height="45.14" fill="#ECECFF" stroke="#7B88A8" stroke-width="1" stroke-linejoin="round" stroke-linecap="round"/><ellipse cx="1306.54" cy="129.67" rx="112.95" ry="7.13" fill="none" stroke="#7B88A8" stroke-width="1" stroke-linejoin="round" stroke-linecap="round"/><text x="1306.54" y="111.10" text-anchor="middle" font-family="trebuchet ms,verdana,arial,Noto Color Emoji,Apple Color Emoji,Segoe UI Emoji,sans-serif" font-size="16" fill="#333333"><tspan x="1306.54" dy="0.00">Server Database</tspan></text><circle cx="1254.96" cy="230.56" r="83.76" fill="#ECECFF" stroke="#7B88A8" stroke-width="1" stroke-linejoin="round" stroke-linecap="round"/><circle cx="1254.96" cy="230.56" r="79.76" fill="none" stroke="#7B88A8" stroke-width="1" stroke-linejoin="round" stroke-linecap="round"/><text x="1254.96" y="222.56" text-anchor="middle" font-family="trebuchet ms,verdana,arial,Noto Color Emoji,Apple Color Emoji,Segoe UI Emoji,sans-serif" font-size="16" fill="#333333"><tspan x="1254.96" dy="0.00">ServerFinish</tspan><tspan x="1254.96" dy="24.00">Function</tspan></text><rect x="75.50" y="362.12" width="95.84" height="54.00" rx="3" ry="3" fill="#ECECFF" stroke="#7B88A8" stroke-width="1" stroke-linejoin="round" stroke-linecap="round"/><text x="123.42" y="393.12" text-anchor="middle" font-family="trebuchet ms,verdana,arial,Noto Color Emoji,Apple Color Emoji,Segoe UI Emoji,sans-serif" font-size="16" fill="#333333"><tspan x="123.42" dy="0.00">User</tspan></text></svg>