<svg xmlns="http://www.w3.org/2000/svg" width="1200" height="800" viewBox="0 0 1959.1581 269.5"><rect x="0" y="0" width="1959.1581" height="269.5" fill="#FFFFFF"/><defs><marker id="arrow-0" viewBox="0 0 10 10" refX="5" refY="5" markerUnits="userSpaceOnUse" markerWidth="8" markerHeight="8" orient="auto"><path d="M 0 0 L 10 5 L 0 10 z" fill="#2F3B4D" stroke="#2F3B4D" stroke-width="1" stroke-dasharray="1,0"/></marker><marker id="arrow-start-0" viewBox="0 0 10 10" refX="4.5" refY="5" markerUnits="userSpaceOnUse" markerWidth="8" markerHeight="8" orient="auto"><path d="M 0 5 L 10 10 L 10 0 z" fill="#2F3B4D" stroke="#2F3B4D" stroke-width="1" stroke-dasharray="1,0"/></marker></defs><path id="edge-0" class="edgePath" data-edge-id="edge-0" d="M 188.484,130.730 L 230.234,130.730" fill="none" stroke="#2F3B4D" stroke-width="2"    stroke-linecap="round" stroke-linejoin="round" /><g transform="translate(230.23 130.73) rotate(0.00)"><polygon points="0,0 -7.50,3.90 -7.50,-3.90" fill="#2F3B4D" stroke="#2F3B4D" stroke-width="2" stroke-linejoin="round" stroke-linecap="round"/></g><path id="edge-1" class="edgePath" data-edge-id="edge-1" d="M 369.265,100.210 L 377.302,100.210 Q 383.878,100.210 388.739,95.783 L 422.068,65.428 Q 426.929,61.000 433.505,61.000 L 441.542,61.000" fill="none" stroke="#2F3B4D" stroke-width="2"    stroke-linecap="round" stroke-linejoin="round" /><g transform="translate(441.54 61.00) rotate(0.00)"><polygon points="0,0 -7.50,3.90 -7.50,-3.90" fill="#2F3B4D" stroke="#2F3B4D" stroke-width="2" stroke-linejoin="round" stroke-linecap="round"/></g><path id="edge-2" class="edgePath" data-edge-id="edge-2" d="M 399.786,130.746 L 441.542,130.746" fill="none" stroke="#2F3B4D" stroke-width="2"    stroke-linecap="round" stroke-linejoin="round" /><g transform="translate(441.54 130.75) rotate(0.00)"><polygon points="0,0 -7.50,3.90 -7.50,-3.90" fill="#2F3B4D" stroke="#2F3B4D" stroke-width="2" stroke-linejoin="round" stroke-linecap="round"/></g><path id="edge-3" class="edgePath" data-edge-id="edge-3" d="M 370.417,160.110 L 378.454,160.110 Q 385.030,160.110 389.764,164.674 L 422.195,195.936 Q 426.929,200.500 433.505,200.500 L 441.542,200.500" fill="none" stroke="#2F3B4D" stroke-width="2"    stroke-linecap="round" stroke-linejoin="round" /><g transform="translate(441.54 200.50) rotate(0.00)"><polygon points="0,0 -7.50,3.90 -7.50,-3.90" fill="#2F3B4D" stroke="#2F3B4D" stroke-width="2" stroke-linejoin="round" stroke-linecap="round"/></g><path id="edge-4" class="edgePath" data-edge-id="edge-4" d="M 537.381,61.000 L 545.418,61.000 Q 551.994,61.000 558.209,63.148 L 655.026,96.615 Q 661.241,98.764 667.817,98.764 L 675.853,98.764" fill="none" stroke="#2F3B4D" stroke-width="2"    stroke-linecap="round" stroke-linejoin="round" /><g transform="translate(675.85 98.76) rotate(0.00)"><polygon points="0,0 -7.50,3.90 -7.50,-3.90" fill="#2F3B4D" stroke="#2F3B4D" stroke-width="2" stroke-linejoin="round" stroke-linecap="round"/></g><path id="edge-5" class="edgePath" data-edge-id="edge-5" d="M 602.103,130.757 L 643.853,130.757" fill="none" stroke="#2F3B4D" stroke-width="2"    stroke-linecap="round" stroke-linejoin="round" /><g transform="translate(643.85 130.76) rotate(0.00)"><polygon points="0,0 -7.50,3.90 -7.50,-3.90" fill="#2F3B4D" stroke="#2F3B4D" stroke-width="2" stroke-linejoin="round" stroke-linecap="round"/></g><path id="edge-6" class="edgePath" data-edge-id="edge-6" d="M 546.341,200.500 L 554.378,200.500 Q 560.954,200.500 567.082,198.115 L 654.178,164.214 Q 660.306,161.829 666.882,161.829 L 674.918,161.829" fill="none" stroke="#2F3B4D" stroke-width="2"    stroke-linecap="round" stroke-linejoin="round" /><g transform="translate(674.92 161.83) rotate(0.00)"><polygon points="0,0 -7.50,3.90 -7.50,-3.90" fill="#2F3B4D" stroke="#2F3B4D" stroke-width="2" stroke-linejoin="round" stroke-linecap="round"/></g><path id="edge-7" class="edgePath" data-edge-id="edge-7" d="M 787.871,130.772 L 840.630,130.772" fill="none" stroke="#2F3B4D" stroke-width="2"    stroke-linecap="round" stroke-linejoin="round" /><g transform="translate(840.63 130.77) rotate(0.00)"><polygon points="0,0 -7.50,3.90 -7.50,-3.90" fill="#2F3B4D" stroke="#2F3B4D" stroke-width="2" stroke-linejoin="round" stroke-linecap="round"/></g><rect data-edge-id="edge-7" data-label-kind="center" x="796.60" y="100.47" width="35.88" height="28.40" rx="2" ry="2" fill="rgba(248,250,252, 0.92)" fill-opacity="0.00" stroke="#7B88A8" stroke-opacity="0.00" stroke-width="0.8"/><g class="edgeLabel" data-edge-id="edge-7" data-label-kind="center"><text x="814.54" y="118.67" text-anchor="middle" font-family="trebuchet ms,verdana,arial,Noto Color Emoji,Apple Color Emoji,Segoe UI Emoji,sans-serif" font-size="16" fill="#333333"><tspan x="814.54" dy="0.00">Yes</tspan></text></g><path id="edge-8" class="edgePath" data-edge-id="edge-8" d="M 771.875,146.764 L 779.912,146.764 Q 786.488,146.764 786.488,153.339 L 786.488,225.340 Q 786.488,235.340 796.488,235.340 L 1718.836,235.340 Q 1728.836,235.340 1728.836,225.340 L 1728.836,146.802" fill="none" stroke="#2F3B4D" stroke-width="2"    stroke-linecap="round" stroke-linejoin="round" /><g transform="translate(1728.84 146.80) rotate(-90.00)"><polygon points="0,0 -7.50,3.90 -7.50,-3.90" fill="#2F3B4D" stroke="#2F3B4D" stroke-width="2" stroke-linejoin="round" stroke-linecap="round"/></g><rect data-edge-id="edge-8" data-label-kind="center" x="1699.92" y="176.87" width="26.92" height="28.40" rx="2" ry="2" fill="rgba(248,250,252, 0.92)" fill-opacity="0.00" stroke="#7B88A8" stroke-opacity="0.00" stroke-width="0.8"/><g class="edgeLabel" data-edge-id="edge-8" data-label-kind="center"><text x="1713.38" y="195.07" text-anchor="middle" font-family="trebuchet ms,verdana,arial,Noto Color Emoji,Apple Color Emoji,Segoe UI Emoji,sans-serif" font-size="16" fill="#333333"><tspan x="1713.38" dy="0.00">No</tspan></text></g><path id="edge-9" class="edgePath" data-edge-id="edge-9" d="M 1074.873,130.780 L 1114.365,130.780" fill="none" stroke="#2F3B4D" stroke-width="2"    stroke-linecap="round" stroke-linejoin="round" /><g transform="translate(1114.37 130.78) rotate(0.00)"><polygon points="0,0 -7.50,3.90 -7.50,-3.90" fill="#2F3B4D" stroke="#2F3B4D" stroke-width="2" stroke-linejoin="round" stroke-linecap="round"/></g><path id="edge-10" class="edgePath" data-edge-id="edge-10" d="M 1283.916,130.794 L 1344.352,130.794" fill="none" stroke="#2F3B4D" stroke-width="2"    stroke-linecap="round" stroke-linejoin="round" /><g transform="translate(1344.35 130.79) rotate(0.00)"><polygon points="0,0 -7.50,3.90 -7.50,-3.90" fill="#2F3B4D" stroke="#2F3B4D" stroke-width="2" stroke-linejoin="round" stroke-linecap="round"/></g><rect data-edge-id="edge-10" data-label-kind="center" x="1296.19" y="132.79" width="35.88" height="28.40" rx="2" ry="2" fill="rgba(248,250,252, 0.92)" fill-opacity="0.00" stroke="#7B88A8" stroke-opacity="0.00" stroke-width="0.8"/><g class="edgeLabel" data-edge-id="edge-10" data-label-kind="center"><text x="1314.13" y="150.99" text-anchor="middle" font-family="trebuchet ms,verdana,arial,Noto Color Emoji,Apple Color Emoji,Segoe UI Emoji,sans-serif" font-size="16" fill="#333333"><tspan x="1314.13" dy="0.00">Yes</tspan></text></g><path id="edge-11" class="edgePath" data-edge-id="edge-11" d="M 1267.922,114.790 L 1275.958,114.790 Q 1282.534,114.790 1282.534,108.215 L 1282.534,74.700 Q 1282.534,64.700 1292.534,64.700 L 1718.836,64.700 Q 1728.836,64.700 1728.836,74.700 L 1728.836,114.803" fill="none" stroke="#2F3B4D" stroke-width="2"    stroke-linecap="round" stroke-linejoin="round" /><g transform="translate(1728.84 114.80) rotate(90.00)"><polygon points="0,0 -7.50,3.90 -7.50,-3.90" fill="#2F3B4D" stroke="#2F3B4D" stroke-width="2" stroke-linejoin="round" stroke-linecap="round"/></g><rect data-edge-id="edge-11" data-label-kind="center" x="1715.38" y="34.54" width="26.92" height="28.40" rx="2" ry="2" fill="rgba(248,250,252, 0.92)" fill-opacity="0.00" stroke="#7B88A8" stroke-opacity="0.00" stroke-width="0.8"/><g class="edgeLabel" data-edge-id="edge-11" data-label-kind="center"><text x="1728.84" y="52.74" text-anchor="middle" font-family="trebuchet ms,verdana,arial,Noto Color Emoji,Apple Color Emoji,Segoe UI Emoji,sans-serif" font-size="16" fill="#333333"><tspan x="1728.84" dy="0.00">No</tspan></text></g><path id="edge-12" class="edgePath" data-edge-id="edge-12" d="M 1495.954,130.800 L 1537.704,130.800" fill="none" stroke="#2F3B4D" stroke-width="2"    stroke-linecap="round" stroke-linejoin="round" /><g transform="translate(1537.70 130.80) rotate(0.00)"><polygon points="0,0 -7.50,3.90 -7.50,-3.90" fill="#2F3B4D" stroke="#2F3B4D" stroke-width="2" stroke-linejoin="round" stroke-linecap="round"/></g><path id="edge-13" class="edgePath" data-edge-id="edge-13" d="M 1660.424,130.804 L 1728.836,130.804" fill="none" stroke="#2F3B4D" stroke-width="2"    stroke-linecap="round" stroke-linejoin="round" /><g transform="translate(1728.84 130.80) rotate(0.00)"><polygon points="0,0 -7.50,3.90 -7.50,-3.90" fill="#2F3B4D" stroke="#2F3B4D" stroke-width="2" stroke-linejoin="round" stroke-linecap="round"/></g><rect data-edge-id="edge-13" data-label-kind="center" x="1667.73" y="100.50" width="53.80" height="28.40" rx="2" ry="2" fill="rgba(248,250,252, 0.92)" fill-opacity="0.00" stroke="#7B88A8" stroke-opacity="0.00" stroke-width="0.8"/><g class="edgeLabel" data-edge-id="edge-13" data-label-kind="center"><text x="1694.63" y="118.70" text-anchor="middle" font-family="trebuchet ms,verdana,arial,Noto Color Emoji,Apple Color Emoji,Segoe UI Emoji,sans-serif" font-size="16" fill="#333333"><tspan x="1694.63" dy="0.00">Alert</tspan></text></g><rect x="8.00" y="103.72" width="180.48" height="54.00" rx="3" ry="3" fill="#ECECFF" stroke="#7B88A8" stroke-width="1" stroke-linejoin="round" stroke-linecap="round"/><text x="98.24" y="134.72" text-anchor="middle" font-family="trebuchet ms,verdana,arial,Noto Color Emoji,Apple Color Emoji,Segoe UI Emoji,sans-serif" font-size="16" fill="#333333"><tspan x="98.24" dy="0.00">Push to Git</tspan></text><polygon points="315.01,45.96 399.79,130.74 315.01,215.52 230.23,130.74" fill="#ECECFF" stroke="#7B88A8" stroke-width="1" stroke-linejoin="round" stroke-linecap="round"/><text x="315.01" y="134.74" text-anchor="middle" font-family="trebuchet ms,verdana,arial,Noto Color Emoji,Apple Color Emoji,Segoe UI Emoji,sans-serif" font-size="16" fill="#333333"><tspan x="315.01" dy="0.00">CI Triggered</tspan></text><rect x="441.54" y="8.00" width="95.84" height="54.00" rx="3" ry="3" fill="#ECECFF" stroke="#7B88A8" stroke-width="1" stroke-linejoin="round" stroke-linecap="round"/><text x="489.46" y="39.00" text-anchor="middle" font-family="trebuchet ms,verdana,arial,Noto Color Emoji,Apple Color Emoji,Segoe UI Emoji,sans-serif" font-size="16" fill="#333333"><tspan x="489.46" dy="0.00">Lint</tspan></text><rect x="441.54" y="103.75" width="160.56" height="54.00" rx="3" ry="3" fill="#ECECFF" stroke="#7B88A8" stroke-width="1" stroke-linejoin="round" stroke-linecap="round"/><text x="521.82" y="134.75" text-anchor="middle" font-family="trebuchet ms,verdana,arial,Noto Color Emoji,Apple Color Emoji,Segoe UI Emoji,sans-serif" font-size="16" fill="#333333"><tspan x="521.82" dy="0.00">Unit Tests</tspan></text><rect x="441.54" y="199.50" width="104.80" height="54.00" rx="3" ry="3" fill="#ECECFF" stroke="#7B88A8" stroke-width="1" stroke-linejoin="round" stroke-linecap="round"/><text x="493.94" y="230.50" text-anchor="middle" font-family="trebuchet ms,verdana,arial,Noto Color Emoji,Apple Color Emoji,Segoe UI Emoji,sans-serif" font-size="16" fill="#333333"><tspan x="493.94" dy="0.00">Build</tspan></text><polygon points="715.86,58.75 787.88,130.76 715.86,202.77 643.85,130.76" fill="#ECECFF" stroke="#7B88A8" stroke-width="1" stroke-linejoin="round" stroke-linecap="round"/><text x="715.86" y="134.76" text-anchor="middle" font-family="trebuchet ms,verdana,arial,Noto Color Emoji,Apple Color Emoji,Segoe UI Emoji,sans-serif" font-size="16" fill="#333333"><tspan x="715.86" dy="0.00">All Pass?</tspan></text><rect x="840.63" y="103.78" width="234.24" height="54.00" rx="3" ry="3" fill="#ECECFF" stroke="#7B88A8" stroke-width="1" stroke-linejoin="round" stroke-linecap="round"/><text x="957.75" y="134.78" text-anchor="middle" font-family="trebuchet ms,verdana,arial,Noto Color Emoji,Apple Color Emoji,Segoe UI Emoji,sans-serif" font-size="16" fill="#333333"><tspan x="957.75" dy="0.00">Deploy to Staging</tspan></text><rect x="1728.84" y="103.81" width="214.32" height="54.00" rx="3" ry="3" fill="#ECECFF" stroke="#7B88A8" stroke-width="1" stroke-linejoin="round" stroke-linecap="round"/><text x="1836.00" y="134.81" text-anchor="middle" font-family="trebuchet ms,verdana,arial,Noto Color Emoji,Apple Color Emoji,Segoe UI Emoji,sans-serif" font-size="16" fill="#333333"><tspan x="1836.00" dy="0.00">Notify Developer</tspan></text><polygon points="1199.14,46.01 1283.92,130.79 1199.14,215.57 1114.36,130.79" fill="#ECECFF" stroke="#7B88A8" stroke-width="1" stroke-linejoin="round" stroke-linecap="round"/><text x="1199.14" y="134.79" text-anchor="middle" font-family="trebuchet ms,verdana,arial,Noto Color Emoji,Apple Color Emoji,Segoe UI Emoji,sans-serif" font-size="16" fill="#333333"><tspan x="1199.14" dy="0.00">QA Approved?</tspan></text><rect x="1344.35" y="91.80" width="151.60" height="78.00" rx="3" ry="3" fill="#ECECFF" stroke="#7B88A8" stroke-width="1" stroke-linejoin="round" stroke-linecap="round"/><text x="1420.15" y="122.80" text-anchor="middle" font-family="trebuchet ms,verdana,arial,Noto Color Emoji,Apple Color Emoji,Segoe UI Emoji,sans-serif" font-size="16" fill="#333333"><tspan x="1420.15" dy="0.00">Deploy to</tspan><tspan x="1420.15" dy="24.00">Production</tspan></text><rect x="1537.70" y="103.80" width="122.72" height="54.00" rx="3" ry="3" fill="#ECECFF" stroke="#7B88A8" stroke-width="1" stroke-linejoin="round" stroke-linecap="round"/><text x="1599.06" y="134.80" text-anchor="middle" font-family="trebuchet ms,verdana,arial,Noto Color Emoji,Apple Color Emoji,Segoe UI Emoji,sans-serif" font-size="16" fill="#333333"><tspan x="1599.06" dy="0.00">Monitor</tspan></text></svg>