<svg xmlns="http://www.w3.org/2000/svg" width="1200" height="800" viewBox="0 0 747.916 180.24785"><rect x="0" y="0" width="747.916" height="180.24785" fill="#FFFFFF"/><defs><marker id="arrow-0" viewBox="0 0 10 10" refX="5" refY="5" markerUnits="userSpaceOnUse" markerWidth="8" markerHeight="8" orient="auto"><path d="M 0 0 L 10 5 L 0 10 z" fill="#2F3B4D" stroke="#2F3B4D" stroke-width="1" stroke-dasharray="1,0"/></marker><marker id="arrow-start-0" viewBox="0 0 10 10" refX="4.5" refY="5" markerUnits="userSpaceOnUse" markerWidth="8" markerHeight="8" orient="auto"><path d="M 0 5 L 10 10 L 10 0 z" fill="#2F3B4D" stroke="#2F3B4D" stroke-width="1" stroke-dasharray="1,0"/></marker></defs><path id="edge-0" class="edgePath" data-edge-id="edge-0" d="M 661.316,83.806 L 618.468,83.806" fill="none" stroke="#2F3B4D" stroke-width="2"    stroke-linecap="round" stroke-linejoin="round" /><g transform="translate(618.47 83.81) rotate(180.00)"><polygon points="0,0 -7.50,3.90 -7.50,-3.90" fill="#2F3B4D" stroke="#2F3B4D" stroke-width="2" stroke-linejoin="round" stroke-linecap="round"/></g><path id="edge-1" class="edgePath" data-edge-id="edge-1" d="M 510.396,83.609 L 502.148,83.609 Q 495.399,83.609 490.254,79.243 L 477.180,68.150 Q 472.035,63.784 465.286,63.784 L 457.038,63.784" fill="none" stroke="#2F3B4D" stroke-width="2"    stroke-linecap="round" stroke-linejoin="round" /><g transform="translate(457.04 63.78) rotate(180.00)"><polygon points="0,0 -7.50,3.90 -7.50,-3.90" fill="#2F3B4D" stroke="#2F3B4D" stroke-width="2" stroke-linejoin="round" stroke-linecap="round"/></g><rect data-edge-id="edge-1" data-label-kind="center" x="474.40" y="35.13" width="35.88" height="28.40" rx="2" ry="2" fill="rgba(248,250,252, 0.92)" fill-opacity="0.00" stroke="#7B88A8" stroke-opacity="0.00" stroke-width="0.8"/><g class="edgeLabel" data-edge-id="edge-1" data-label-kind="center"><text x="492.34" y="53.33" text-anchor="middle" font-family="trebuchet ms,verdana,arial,Noto Color Emoji,Apple Color Emoji,Segoe UI Emoji,sans-serif" font-size="16" fill="#333333"><tspan x="492.34" dy="0.00">yes</tspan></text></g><path id="edge-2" class="edgePath" data-edge-id="edge-2" d="M 510.396,83.609 L 510.396,108.295 Q 510.396,118.295 500.396,118.295 L 458.539,118.295" fill="none" stroke="#2F3B4D" stroke-width="2"    stroke-linecap="round" stroke-linejoin="round" /><g transform="translate(458.54 118.30) rotate(180.00)"><polygon points="0,0 -7.50,3.90 -7.50,-3.90" fill="#2F3B4D" stroke="#2F3B4D" stroke-width="2" stroke-linejoin="round" stroke-linecap="round"/></g><rect data-edge-id="edge-2" data-label-kind="center" x="471.01" y="120.30" width="26.92" height="28.40" rx="2" ry="2" fill="rgba(248,250,252, 0.92)" fill-opacity="0.00" stroke="#7B88A8" stroke-opacity="0.00" stroke-width="0.8"/><g class="edgeLabel" data-edge-id="edge-2" data-label-kind="center"><text x="484.47" y="138.50" text-anchor="middle" font-family="trebuchet ms,verdana,arial,Noto Color Emoji,Apple Color Emoji,Segoe UI Emoji,sans-serif" font-size="16" fill="#333333"><tspan x="484.47" dy="0.00">no</tspan></text></g><path id="edge-3" class="edgePath" data-edge-id="edge-3" d="M 305.436,37.742 L 264.090,37.742" fill="none" stroke="#2F3B4D" stroke-width="2"    stroke-linecap="round" stroke-linejoin="round" /><g transform="translate(264.09 37.74) rotate(180.00)"><polygon points="0,0 -7.50,3.90 -7.50,-3.90" fill="#2F3B4D" stroke="#2F3B4D" stroke-width="2" stroke-linejoin="round" stroke-linecap="round"/></g><path id="edge-4" class="edgePath" data-edge-id="edge-4" d="M 344.779,137.087 L 264.090,137.087" fill="none" stroke="#2F3B4D" stroke-width="2"    stroke-linecap="round" stroke-linejoin="round" /><g transform="translate(264.09 137.09) rotate(180.00)"><polygon points="0,0 -7.50,3.90 -7.50,-3.90" fill="#2F3B4D" stroke="#2F3B4D" stroke-width="2" stroke-linejoin="round" stroke-linecap="round"/></g><path id="edge-5" class="edgePath" data-edge-id="edge-5" d="M 129.098,66.400 L 121.590,66.400 Q 115.448,66.400 109.382,67.368 L 89.356,70.565 Q 83.290,71.533 77.148,71.533 L 69.640,71.533" fill="none" stroke="#2F3B4D" stroke-width="2"    stroke-linecap="round" stroke-linejoin="round" /><g transform="translate(69.64 71.53) rotate(180.00)"><polygon points="0,0 -7.50,3.90 -7.50,-3.90" fill="#2F3B4D" stroke="#2F3B4D" stroke-width="2" stroke-linejoin="round" stroke-linecap="round"/></g><path id="edge-6" class="edgePath" data-edge-id="edge-6" d="M 112.488,112.036 L 104.980,112.036 Q 98.838,112.036 93.108,109.823 L 89.020,108.245 Q 83.290,106.033 77.148,106.033 L 69.640,106.033" fill="none" stroke="#2F3B4D" stroke-width="2"    stroke-linecap="round" stroke-linejoin="round" /><g transform="translate(69.64 106.03) rotate(180.00)"><polygon points="0,0 -7.50,3.90 -7.50,-3.90" fill="#2F3B4D" stroke="#2F3B4D" stroke-width="2" stroke-linejoin="round" stroke-linecap="round"/></g><rect x="112.49" y="110.25" width="151.60" height="54.00" rx="3" ry="3" fill="#ECECFF" stroke="#7B88A8" stroke-width="1" stroke-linejoin="round" stroke-linecap="round"/><text x="188.29" y="141.25" text-anchor="middle" font-family="trebuchet ms,verdana,arial,Noto Color Emoji,Apple Color Emoji,Segoe UI Emoji,sans-serif" font-size="16" fill="#333333"><tspan x="188.29" dy="0.00">Audit Log</tspan></text><rect x="8.00" y="68.03" width="61.64" height="39.00" rx="19.50" ry="19.50" fill="#ECECFF" stroke="#7B88A8" stroke-width="1" stroke-linejoin="round" stroke-linecap="round"/><text x="38.82" y="91.53" text-anchor="middle" font-family="trebuchet ms,verdana,arial,Noto Color Emoji,Apple Color Emoji,Segoe UI Emoji,sans-serif" font-size="16" fill="#333333"><tspan x="38.82" dy="0.00">Done</tspan></text><ellipse cx="196.59" cy="15.13" rx="67.50" ry="7.13" fill="#ECECFF" stroke="#7B88A8" stroke-width="1" stroke-linejoin="round" stroke-linecap="round"/><rect x="129.10" y="15.13" width="134.99" height="45.14" fill="#ECECFF" stroke="#7B88A8" stroke-width="1" stroke-linejoin="round" stroke-linecap="round"/><ellipse cx="196.59" cy="60.27" rx="67.50" ry="7.13" fill="none" stroke="#7B88A8" stroke-width="1" stroke-linejoin="round" stroke-linecap="round"/><text x="196.59" y="41.70" text-anchor="middle" font-family="trebuchet ms,verdana,arial,Noto Color Emoji,Apple Color Emoji,Segoe UI Emoji,sans-serif" font-size="16" fill="#333333"><tspan x="196.59" dy="0.00">Persist</tspan></text><rect x="305.44" y="10.78" width="151.60" height="54.00" rx="3" ry="3" fill="#ECECFF" stroke="#7B88A8" stroke-width="1" stroke-linejoin="round" stroke-linecap="round"/><text x="381.24" y="41.78" text-anchor="middle" font-family="trebuchet ms,verdana,arial,Noto Color Emoji,Apple Color Emoji,Segoe UI Emoji,sans-serif" font-size="16" fill="#333333"><tspan x="381.24" dy="0.00">Queue Job</tspan></text><rect x="344.78" y="109.93" width="113.76" height="54.00" rx="3" ry="3" fill="#ECECFF" stroke="#7B88A8" stroke-width="1" stroke-linejoin="round" stroke-linecap="round"/><text x="401.66" y="140.93" text-anchor="middle" font-family="trebuchet ms,verdana,arial,Noto Color Emoji,Apple Color Emoji,Segoe UI Emoji,sans-serif" font-size="16" fill="#333333"><tspan x="401.66" dy="0.00">Reject</tspan></text><rect x="661.32" y="64.50" width="70.60" height="39.00" rx="19.50" ry="19.50" fill="#ECECFF" stroke="#7B88A8" stroke-width="1" stroke-linejoin="round" stroke-linecap="round"/><text x="696.62" y="88.00" text-anchor="middle" font-family="trebuchet ms,verdana,arial,Noto Color Emoji,Apple Color Emoji,Segoe UI Emoji,sans-serif" font-size="16" fill="#333333"><tspan x="696.62" dy="0.00">Start</tspan></text><polygon points="564.43,29.57 618.47,83.61 564.43,137.65 510.40,83.61" fill="#ECECFF" stroke="#7B88A8" stroke-width="1" stroke-linejoin="round" stroke-linecap="round"/><text x="564.43" y="87.61" text-anchor="middle" font-family="trebuchet ms,verdana,arial,Noto Color Emoji,Apple Color Emoji,Segoe UI Emoji,sans-serif" font-size="16" fill="#333333"><tspan x="564.43" dy="0.00">Valid?</tspan></text></svg>