<svg xmlns="http://www.w3.org/2000/svg" width="1200" height="800" viewBox="0 0 1328.551 1109.1034"><rect x="0" y="0" width="1328.551" height="1109.1034" fill="#FFFFFF"/><defs><marker id="arrow-0" viewBox="0 0 10 10" refX="5" refY="5" markerUnits="userSpaceOnUse" markerWidth="8" markerHeight="8" orient="auto"><path d="M 0 0 L 10 5 L 0 10 z" fill="#2F3B4D" stroke="#2F3B4D" stroke-width="1" stroke-dasharray="1,0"/></marker><marker id="arrow-start-0" viewBox="0 0 10 10" refX="4.5" refY="5" markerUnits="userSpaceOnUse" markerWidth="8" markerHeight="8" orient="auto"><path d="M 0 5 L 10 10 L 10 0 z" fill="#2F3B4D" stroke="#2F3B4D" stroke-width="1" stroke-dasharray="1,0"/></marker></defs><rect x="8.00" y="298.92" width="1211.66" height="445.47" rx="10" ry="10" fill="#FFFFDE" stroke="#AAAA33" stroke-width="1" /><text x="613.83" y="326.92" text-anchor="middle" font-family="trebuchet ms,verdana,arial,Noto Color Emoji,Apple Color Emoji,Segoe UI Emoji,sans-serif" font-size="16" fill="#333333"><tspan x="613.83" dy="0.00">Process</tspan></text><rect x="956.85" y="586.38" width="328.82" height="506.72" rx="10" ry="10" fill="#FFFFDE" stroke="#AAAA33" stroke-width="1" /><text x="1121.26" y="614.38" text-anchor="middle" font-family="trebuchet ms,verdana,arial,Noto Color Emoji,Apple Color Emoji,Segoe UI Emoji,sans-serif" font-size="16" fill="#333333"><tspan x="1121.26" dy="0.00">Output</tspan></text><rect x="956.85" y="8.00" width="355.70" height="436.92" rx="10" ry="10" fill="#FFFFDE" stroke="#AAAA33" stroke-width="1" /><text x="1134.70" y="36.00" text-anchor="middle" font-family="trebuchet ms,verdana,arial,Noto Color Emoji,Apple Color Emoji,Segoe UI Emoji,sans-serif" font-size="16" fill="#333333"><tspan x="1134.70" dy="0.00">Ingest</tspan></text><path id="edge-0" class="edgePath" data-edge-id="edge-0" d="M 1128.129,104.000 L 1128.129,112.554 Q 1128.129,118.457 1130.066,124.033 L 1130.496,125.272 Q 1132.433,130.848 1132.433,136.751 L 1132.433,145.305" fill="none" stroke="#2F3B4D" stroke-width="2"    stroke-linecap="round" stroke-linejoin="round" /><g transform="translate(1132.43 145.30) rotate(90.00)"><polygon points="0,0 -7.50,3.90 -7.50,-3.90" fill="#2F3B4D" stroke="#2F3B4D" stroke-width="2" stroke-linejoin="round" stroke-linecap="round"/></g><path id="edge-1" class="edgePath" data-edge-id="edge-1" d="M 1132.433,270.401 L 1132.433,278.352 Q 1132.433,284.857 1128.036,289.652 L 1089.513,331.666 Q 1085.116,336.461 1085.116,342.966 L 1085.116,350.917" fill="none" stroke="#2F3B4D" stroke-width="2"    stroke-linecap="round" stroke-linejoin="round" /><g transform="translate(1085.12 350.92) rotate(90.00)"><polygon points="0,0 -7.50,3.90 -7.50,-3.90" fill="#2F3B4D" stroke="#2F3B4D" stroke-width="2" stroke-linejoin="round" stroke-linecap="round"/></g><rect data-edge-id="edge-1" data-label-kind="center" x="1060.81" y="302.82" width="26.92" height="28.40" rx="2" ry="2" fill="rgba(248,250,252, 0.92)" fill-opacity="0.00" stroke="#7B88A8" stroke-opacity="0.00" stroke-width="0.8"/><g class="edgeLabel" data-edge-id="edge-1" data-label-kind="center"><text x="1074.27" y="321.02" text-anchor="middle" font-family="trebuchet ms,verdana,arial,Noto Color Emoji,Apple Color Emoji,Segoe UI Emoji,sans-serif" font-size="16" fill="#333333"><tspan x="1074.27" dy="0.00">ok</tspan></text></g><path id="edge-2" class="edgePath" data-edge-id="edge-2" d="M 1133.433,269.401 L 1141.384,269.401 Q 1147.889,269.401 1148.396,275.886 L 1153.828,345.432 Q 1154.334,351.917 1160.840,351.917 L 1168.791,351.917" fill="none" stroke="#2F3B4D" stroke-width="2"    stroke-linecap="round" stroke-linejoin="round" /><g transform="translate(1168.79 351.92) rotate(0.00)"><polygon points="0,0 -7.50,3.90 -7.50,-3.90" fill="#2F3B4D" stroke="#2F3B4D" stroke-width="2" stroke-linejoin="round" stroke-linecap="round"/></g><rect data-edge-id="edge-2" data-label-kind="center" x="1152.26" y="278.95" width="44.84" height="28.40" rx="2" ry="2" fill="rgba(248,250,252, 0.92)" fill-opacity="0.00" stroke="#7B88A8" stroke-opacity="0.00" stroke-width="0.8"/><g class="edgeLabel" data-edge-id="edge-2" data-label-kind="center"><text x="1174.68" y="297.15" text-anchor="middle" font-family="trebuchet ms,verdana,arial,Noto Color Emoji,Apple Color Emoji,Segoe UI Emoji,sans-serif" font-size="16" fill="#333333"><tspan x="1174.68" dy="0.00">fail</tspan></text></g><path id="edge-3" class="edgePath" data-edge-id="edge-3" d="M 986.846,403.003 L 978.895,403.003 Q 972.390,403.003 965.906,403.534 L 380.859,451.472 Q 374.376,452.004 367.870,452.004 L 359.919,452.004" fill="none" stroke="#2F3B4D" stroke-width="2"    stroke-linecap="round" stroke-linejoin="round" /><g transform="translate(359.92 452.00) rotate(180.00)"><polygon points="0,0 -7.50,3.90 -7.50,-3.90" fill="#2F3B4D" stroke="#2F3B4D" stroke-width="2" stroke-linejoin="round" stroke-linecap="round"/></g><path id="edge-4" class="edgePath" data-edge-id="edge-4" d="M 256.119,501.774 L 256.119,509.725 Q 256.119,516.231 249.711,517.353 L 191.807,527.499 Q 185.399,528.622 185.399,535.128 L 185.399,543.079" fill="none" stroke="#2F3B4D" stroke-width="2"    stroke-linecap="round" stroke-linejoin="round" /><g transform="translate(185.40 543.08) rotate(90.00)"><polygon points="0,0 -7.50,3.90 -7.50,-3.90" fill="#2F3B4D" stroke="#2F3B4D" stroke-width="2" stroke-linejoin="round" stroke-linecap="round"/></g><path id="edge-5" class="edgePath" data-edge-id="edge-5" d="M 358.919,501.774 L 358.919,509.725 Q 358.919,516.231 365.363,517.119 L 442.336,527.733 Q 448.780,528.622 448.780,535.128 L 448.780,543.079" fill="none" stroke="#2F3B4D" stroke-width="2"    stroke-linecap="round" stroke-linejoin="round" /><g transform="translate(448.78 543.08) rotate(90.00)"><polygon points="0,0 -7.50,3.90 -7.50,-3.90" fill="#2F3B4D" stroke="#2F3B4D" stroke-width="2" stroke-linejoin="round" stroke-linecap="round"/></g><path id="edge-6" class="edgePath" data-edge-id="edge-6" d="M 307.519,501.774 L 307.519,510.568 Q 307.519,516.231 308.505,521.807 L 308.724,523.046 Q 309.710,528.622 309.710,534.285 L 309.710,543.079" fill="none" stroke="#2F3B4D" stroke-width="2"    stroke-linecap="round" stroke-linejoin="round" /><g transform="translate(309.71 543.08) rotate(90.00)"><polygon points="0,0 -7.50,3.90 -7.50,-3.90" fill="#2F3B4D" stroke="#2F3B4D" stroke-width="2" stroke-linejoin="round" stroke-linecap="round"/></g><path id="edge-7" class="edgePath" data-edge-id="edge-7" d="M 190.604,597.079 L 190.604,613.927 Q 190.604,623.927 200.604,623.927 L 1043.517,623.927 Q 1050.023,623.927 1050.023,630.432 L 1050.023,638.383" fill="none" stroke="#2F3B4D" stroke-width="2"    stroke-linecap="round" stroke-linejoin="round" /><g transform="translate(1050.02 638.38) rotate(90.00)"><polygon points="0,0 -7.50,3.90 -7.50,-3.90" fill="#2F3B4D" stroke="#2F3B4D" stroke-width="2" stroke-linejoin="round" stroke-linecap="round"/></g><path id="edge-8" class="edgePath" data-edge-id="edge-8" d="M 581.421,596.079 L 589.372,596.079 Q 595.877,596.079 602.327,596.925 L 1028.116,652.814 Q 1034.566,653.660 1041.072,653.660 L 1049.023,653.660" fill="none" stroke="#2F3B4D" stroke-width="2"    stroke-linecap="round" stroke-linejoin="round" /><g transform="translate(1049.02 653.66) rotate(0.00)"><polygon points="0,0 -7.50,3.90 -7.50,-3.90" fill="#2F3B4D" stroke="#2F3B4D" stroke-width="2" stroke-linejoin="round" stroke-linecap="round"/></g><path id="edge-9" class="edgePath" data-edge-id="edge-9" d="M 385.512,597.079 L 385.512,609.796 Q 385.512,619.796 395.512,619.796 L 1048.164,619.796 Q 1050.023,619.796 1050.023,621.655 L 1050.023,622.068 Q 1050.023,623.927 1051.881,623.927 L 1055.702,623.927 Q 1060.349,623.927 1060.349,628.573 L 1060.349,633.737 Q 1060.349,638.383 1055.702,638.383 L 1050.023,638.383" fill="none" stroke="#2F3B4D" stroke-width="2"    stroke-linecap="round" stroke-linejoin="round" /><g transform="translate(1050.02 638.38) rotate(180.00)"><polygon points="0,0 -7.50,3.90 -7.50,-3.90" fill="#2F3B4D" stroke="#2F3B4D" stroke-width="2" stroke-linejoin="round" stroke-linecap="round"/></g><path id="edge-10" class="edgePath" data-edge-id="edge-10" d="M 1119.343,692.383 L 1119.343,700.335 Q 1119.343,706.840 1112.837,706.840 L 1103.789,706.840 Q 1093.789,706.840 1093.789,716.840 L 1093.789,723.688 Q 1093.789,733.688 1103.789,733.688 L 1117.801,733.688" fill="none" stroke="#2F3B4D" stroke-width="2"    stroke-linecap="round" stroke-linejoin="round" /><g transform="translate(1117.80 733.69) rotate(0.00)"><polygon points="0,0 -7.50,3.90 -7.50,-3.90" fill="#2F3B4D" stroke="#2F3B4D" stroke-width="2" stroke-linejoin="round" stroke-linecap="round"/></g><path id="edge-11" class="edgePath" data-edge-id="edge-11" d="M 1104.905,820.353 L 1104.905,828.304 Q 1104.905,834.809 1100.844,839.892 L 1074.980,872.260 Q 1070.919,877.342 1070.919,883.848 L 1070.919,891.799" fill="none" stroke="#2F3B4D" stroke-width="2"    stroke-linecap="round" stroke-linejoin="round" /><g transform="translate(1070.92 891.80) rotate(90.00)"><polygon points="0,0 -7.50,3.90 -7.50,-3.90" fill="#2F3B4D" stroke="#2F3B4D" stroke-width="2" stroke-linejoin="round" stroke-linecap="round"/></g><rect data-edge-id="edge-11" data-label-kind="center" x="1024.18" y="852.03" width="44.84" height="28.40" rx="2" ry="2" fill="rgba(248,250,252, 0.92)" fill-opacity="0.00" stroke="#7B88A8" stroke-opacity="0.00" stroke-width="0.8"/><g class="edgeLabel" data-edge-id="edge-11" data-label-kind="center"><text x="1046.60" y="870.23" text-anchor="middle" font-family="trebuchet ms,verdana,arial,Noto Color Emoji,Apple Color Emoji,Segoe UI Emoji,sans-serif" font-size="16" fill="#333333"><tspan x="1046.60" dy="0.00">fast</tspan></text></g><path id="edge-12" class="edgePath" data-edge-id="edge-12" d="M 1117.801,833.248 L 1117.801,841.199 Q 1117.801,847.705 1123.243,851.269 L 1157.604,873.777 Q 1163.046,877.342 1163.046,883.848 L 1163.046,891.799" fill="none" stroke="#2F3B4D" stroke-width="2"    stroke-linecap="round" stroke-linejoin="round" /><g transform="translate(1163.05 891.80) rotate(90.00)"><polygon points="0,0 -7.50,3.90 -7.50,-3.90" fill="#2F3B4D" stroke="#2F3B4D" stroke-width="2" stroke-linejoin="round" stroke-linecap="round"/></g><rect data-edge-id="edge-12" data-label-kind="center" x="1162.69" y="846.44" width="44.84" height="28.40" rx="2" ry="2" fill="rgba(248,250,252, 0.92)" fill-opacity="0.00" stroke="#7B88A8" stroke-opacity="0.00" stroke-width="0.8"/><g class="edgeLabel" data-edge-id="edge-12" data-label-kind="center"><text x="1185.11" y="864.64" text-anchor="middle" font-family="trebuchet ms,verdana,arial,Noto Color Emoji,Apple Color Emoji,Segoe UI Emoji,sans-serif" font-size="16" fill="#333333"><tspan x="1185.11" dy="0.00">slow</tspan></text></g><path id="edge-13" class="edgePath" data-edge-id="edge-13" d="M 1077.067,945.799 L 1077.067,953.806 Q 1077.067,960.255 1080.308,965.831 L 1081.028,967.071 Q 1084.270,972.647 1084.270,979.096 L 1084.270,987.103" fill="none" stroke="#2F3B4D" stroke-width="2"    stroke-linecap="round" stroke-linejoin="round" /><g transform="translate(1084.27 987.10) rotate(90.00)"><polygon points="0,0 -7.50,3.90 -7.50,-3.90" fill="#2F3B4D" stroke="#2F3B4D" stroke-width="2" stroke-linejoin="round" stroke-linecap="round"/></g><path id="edge-14" class="edgePath" data-edge-id="edge-14" d="M 1172.202,945.799 L 1172.202,953.750 Q 1172.202,960.255 1166.860,963.969 L 1159.720,968.933 Q 1154.379,972.647 1154.379,979.152 L 1154.379,987.103" fill="none" stroke="#2F3B4D" stroke-width="2"    stroke-linecap="round" stroke-linejoin="round" /><g transform="translate(1154.38 987.10) rotate(90.00)"><polygon points="0,0 -7.50,3.90 -7.50,-3.90" fill="#2F3B4D" stroke="#2F3B4D" stroke-width="2" stroke-linejoin="round" stroke-linecap="round"/></g><path id="edge-15" class="edgePath" data-edge-id="edge-15" d="M 1237.028,404.917 L 1237.028,412.868 Q 1237.028,419.374 1243.534,419.374 L 1282.344,419.374 Q 1292.344,419.374 1292.344,429.374 L 1292.344,1004.103 Q 1292.344,1014.103 1282.344,1014.103 L 1187.606,1014.103 L 1173.150,1014.103" fill="none" stroke="#2F3B4D" stroke-width="2"    stroke-linecap="round" stroke-linejoin="round" /><g transform="translate(1173.15 1014.10) rotate(180.00)"><polygon points="0,0 -7.50,3.90 -7.50,-3.90" fill="#2F3B4D" stroke="#2F3B4D" stroke-width="2" stroke-linejoin="round" stroke-linecap="round"/></g><path id="edge-16" class="edgePath" data-edge-id="edge-16" d="M 1071.249,103.000 L 369.919,103.000 Q 359.919,103.000 359.919,113.000 L 359.919,449.374" fill="none" stroke="#2F3B4D" stroke-width="2"   stroke-dasharray="4 4" stroke-linecap="round" stroke-linejoin="round" /><g transform="translate(359.92 449.37) rotate(90.00)"><polygon points="0,0 -7.50,3.90 -7.50,-3.90" fill="#2F3B4D" stroke="#2F3B4D" stroke-width="2" stroke-linejoin="round" stroke-linecap="round"/></g><rect data-edge-id="edge-16" data-label-kind="center" x="688.68" y="72.60" width="53.80" height="28.40" rx="2" ry="2" fill="rgba(248,250,252, 0.92)" fill-opacity="0.00" stroke="#7B88A8" stroke-opacity="0.00" stroke-width="0.8"/><g class="edgeLabel" data-edge-id="edge-16" data-label-kind="center"><text x="715.58" y="90.80" text-anchor="middle" font-family="trebuchet ms,verdana,arial,Noto Color Emoji,Apple Color Emoji,Segoe UI Emoji,sans-serif" font-size="16" fill="#333333"><tspan x="715.58" dy="0.00">retry</tspan></text></g><path id="edge-17" class="edgePath" data-edge-id="edge-17" d="M 1045.203,404.917 L 1045.203,407.566 Q 1045.203,409.734 1043.036,409.734 L 1040.215,409.734 Q 1036.134,409.734 1036.134,413.815 L 1036.134,538.934 Q 1036.134,548.934 1046.134,548.934 L 1211.734,548.934 Q 1221.734,548.934 1221.734,558.934 L 1221.734,701.334 Q 1221.734,711.334 1211.734,711.334 L 1121.355,711.334 Q 1117.801,711.334 1117.801,714.888 L 1117.801,715.678 Q 1117.801,719.231 1121.355,719.231 L 1123.480,719.231 Q 1128.127,719.231 1128.127,723.878 L 1128.127,729.041 Q 1128.127,733.688 1123.480,733.688 L 1117.801,733.688" fill="none" stroke="#2F3B4D" stroke-width="2"    stroke-linecap="round" stroke-linejoin="round" /><g transform="translate(1117.80 733.69) rotate(180.00)"><polygon points="0,0 -7.50,3.90 -7.50,-3.90" fill="#2F3B4D" stroke="#2F3B4D" stroke-width="2" stroke-linejoin="round" stroke-linecap="round"/></g><path id="edge-18" class="edgePath" data-edge-id="edge-18" d="M 580.421,543.079 L 580.421,487.201 Q 580.421,477.201 590.421,477.201 L 1159.791,477.201 Q 1169.791,477.201 1169.791,467.201 L 1169.791,404.917" fill="none" stroke="#2F3B4D" stroke-width="2"   stroke-dasharray="4 4" stroke-linecap="round" stroke-linejoin="round" /><g transform="translate(1169.79 404.92) rotate(-90.00)"><polygon points="0,0 -7.50,3.90 -7.50,-3.90" fill="#2F3B4D" stroke="#2F3B4D" stroke-width="2" stroke-linejoin="round" stroke-linecap="round"/></g><rect data-edge-id="edge-18" data-label-kind="center" x="848.21" y="479.20" width="53.80" height="28.40" rx="2" ry="2" fill="rgba(248,250,252, 0.92)" fill-opacity="0.00" stroke="#7B88A8" stroke-opacity="0.00" stroke-width="0.8"/><g class="edgeLabel" data-edge-id="edge-18" data-label-kind="center"><text x="875.11" y="497.40" text-anchor="middle" font-family="trebuchet ms,verdana,arial,Noto Color Emoji,Apple Color Emoji,Segoe UI Emoji,sans-serif" font-size="16" fill="#333333"><tspan x="875.11" dy="0.00">audit</tspan></text></g><rect x="1071.25" y="50.00" width="113.76" height="54.00" rx="3" ry="3" fill="#ECECFF" stroke="#7B88A8" stroke-width="1" stroke-linejoin="round" stroke-linecap="round"/><text x="1128.13" y="81.00" text-anchor="middle" font-family="trebuchet ms,verdana,arial,Noto Color Emoji,Apple Color Emoji,Segoe UI Emoji,sans-serif" font-size="16" fill="#333333"><tspan x="1128.13" dy="0.00">Source</tspan></text><polygon points="1132.43,145.30 1194.98,207.85 1132.43,270.40 1069.88,207.85" fill="#ECECFF" stroke="#7B88A8" stroke-width="1" stroke-linejoin="round" stroke-linecap="round"/><text x="1132.43" y="211.85" text-anchor="middle" font-family="trebuchet ms,verdana,arial,Noto Color Emoji,Apple Color Emoji,Segoe UI Emoji,sans-serif" font-size="16" fill="#333333"><tspan x="1132.43" dy="0.00">Validate</tspan></text><rect x="986.85" y="350.92" width="140.64" height="54.00" rx="3" ry="3" fill="#ECECFF" stroke="#7B88A8" stroke-width="1" stroke-linejoin="round" stroke-linecap="round"/><text x="1057.17" y="381.92" text-anchor="middle" font-family="trebuchet ms,verdana,arial,Noto Color Emoji,Apple Color Emoji,Segoe UI Emoji,sans-serif" font-size="16" fill="#333333"><tspan x="1057.17" dy="0.00">Normalize</tspan></text><rect x="1168.79" y="350.92" width="113.76" height="54.00" rx="3" ry="3" fill="#ECECFF" stroke="#7B88A8" stroke-width="1" stroke-linejoin="round" stroke-linecap="round"/><text x="1225.67" y="381.92" text-anchor="middle" font-family="trebuchet ms,verdana,arial,Noto Color Emoji,Apple Color Emoji,Segoe UI Emoji,sans-serif" font-size="16" fill="#333333"><tspan x="1225.67" dy="0.00">Reject</tspan></text><rect x="255.12" y="447.77" width="104.80" height="54.00" rx="3" ry="3" fill="#ECECFF" stroke="#7B88A8" stroke-width="1" stroke-linejoin="round" stroke-linecap="round"/><text x="307.52" y="478.77" text-anchor="middle" font-family="trebuchet ms,verdana,arial,Noto Color Emoji,Apple Color Emoji,Segoe UI Emoji,sans-serif" font-size="16" fill="#333333"><tspan x="307.52" dy="0.00">Queue</tspan></text><rect x="38.00" y="543.08" width="153.60" height="54.00" rx="3" ry="3" fill="#ECECFF" stroke="#7B88A8" stroke-width="1" stroke-linejoin="round" stroke-linecap="round"/><text x="114.80" y="574.08" text-anchor="middle" font-family="trebuchet ms,verdana,arial,Noto Color Emoji,Apple Color Emoji,Segoe UI Emoji,sans-serif" font-size="16" fill="#333333"><tspan x="114.80" dy="0.00">Worker 1</tspan></text><rect x="427.82" y="543.08" width="153.60" height="54.00" rx="3" ry="3" fill="#ECECFF" stroke="#7B88A8" stroke-width="1" stroke-linejoin="round" stroke-linecap="round"/><text x="504.62" y="574.08" text-anchor="middle" font-family="trebuchet ms,verdana,arial,Noto Color Emoji,Apple Color Emoji,Segoe UI Emoji,sans-serif" font-size="16" fill="#333333"><tspan x="504.62" dy="0.00">Worker 2</tspan></text><rect x="232.91" y="543.08" width="153.60" height="54.00" rx="3" ry="3" fill="#ECECFF" stroke="#7B88A8" stroke-width="1" stroke-linejoin="round" stroke-linecap="round"/><text x="309.71" y="574.08" text-anchor="middle" font-family="trebuchet ms,verdana,arial,Noto Color Emoji,Apple Color Emoji,Segoe UI Emoji,sans-serif" font-size="16" fill="#333333"><tspan x="309.71" dy="0.00">Worker 3</tspan></text><rect x="1049.02" y="638.38" width="140.64" height="54.00" rx="3" ry="3" fill="#ECECFF" stroke="#7B88A8" stroke-width="1" stroke-linejoin="round" stroke-linecap="round"/><text x="1119.34" y="669.38" text-anchor="middle" font-family="trebuchet ms,verdana,arial,Noto Color Emoji,Apple Color Emoji,Segoe UI Emoji,sans-serif" font-size="16" fill="#333333"><tspan x="1119.34" dy="0.00">Aggregate</tspan></text><polygon points="1117.80,733.69 1167.58,783.47 1117.80,833.25 1068.02,783.47" fill="#ECECFF" stroke="#7B88A8" stroke-width="1" stroke-linejoin="round" stroke-linecap="round"/><text x="1117.80" y="787.47" text-anchor="middle" font-family="trebuchet ms,verdana,arial,Noto Color Emoji,Apple Color Emoji,Segoe UI Emoji,sans-serif" font-size="16" fill="#333333"><tspan x="1117.80" dy="0.00">Route</tspan></text><rect x="986.85" y="891.80" width="104.80" height="54.00" rx="3" ry="3" fill="#ECECFF" stroke="#7B88A8" stroke-width="1" stroke-linejoin="round" stroke-linecap="round"/><text x="1039.25" y="922.80" text-anchor="middle" font-family="trebuchet ms,verdana,arial,Noto Color Emoji,Apple Color Emoji,Segoe UI Emoji,sans-serif" font-size="16" fill="#333333"><tspan x="1039.25" dy="0.00">Cache</tspan></text><rect x="1132.95" y="891.80" width="122.72" height="54.00" rx="3" ry="3" fill="#ECECFF" stroke="#7B88A8" stroke-width="1" stroke-linejoin="round" stroke-linecap="round"/><text x="1194.31" y="922.80" text-anchor="middle" font-family="trebuchet ms,verdana,arial,Noto Color Emoji,Apple Color Emoji,Segoe UI Emoji,sans-serif" font-size="16" fill="#333333"><tspan x="1194.31" dy="0.00">Archive</tspan></text><rect x="1059.39" y="987.10" width="113.76" height="54.00" rx="3" ry="3" fill="#ECECFF" stroke="#7B88A8" stroke-width="1" stroke-linejoin="round" stroke-linecap="round"/><text x="1116.27" y="1018.10" text-anchor="middle" font-family="trebuchet ms,verdana,arial,Noto Color Emoji,Apple Color Emoji,Segoe UI Emoji,sans-serif" font-size="16" fill="#333333"><tspan x="1116.27" dy="0.00">Notify</tspan></text></svg>