<svg xmlns="http://www.w3.org/2000/svg" width="1200" height="800" viewBox="0 0 1545.6382 268.30807"><rect x="0" y="0" width="1545.6382" height="268.30807" fill="#FFFFFF"/><defs><marker id="arrow-0" viewBox="0 0 10 10" refX="5" refY="5" markerUnits="userSpaceOnUse" markerWidth="8" markerHeight="8" orient="auto"><path d="M 0 0 L 10 5 L 0 10 z" fill="#2F3B4D" stroke="#2F3B4D" stroke-width="1" stroke-dasharray="1,0"/></marker><marker id="arrow-start-0" viewBox="0 0 10 10" refX="4.5" refY="5" markerUnits="userSpaceOnUse" markerWidth="8" markerHeight="8" orient="auto"><path d="M 0 5 L 10 10 L 10 0 z" fill="#2F3B4D" stroke="#2F3B4D" stroke-width="1" stroke-dasharray="1,0"/></marker></defs><rect x="411.45" y="22.66" width="580.96" height="147.69" rx="10" ry="10" fill="#FFFFDE" stroke="#AAAA33" stroke-width="1" /><text x="701.93" y="50.66" text-anchor="middle" font-family="trebuchet ms,verdana,arial,Noto Color Emoji,Apple Color Emoji,Segoe UI Emoji,sans-serif" font-size="16" fill="#333333"><tspan x="701.93" dy="0.00">Services</tspan></text><rect x="1072.41" y="106.41" width="457.23" height="145.90" rx="10" ry="10" fill="#FFFFDE" stroke="#AAAA33" stroke-width="1" /><text x="1301.02" y="134.41" text-anchor="middle" font-family="trebuchet ms,verdana,arial,Noto Color Emoji,Apple Color Emoji,Segoe UI Emoji,sans-serif" font-size="16" fill="#333333"><tspan x="1301.02" dy="0.00">Storage</tspan></text><rect x="8.00" y="35.27" width="323.45" height="125.54" rx="10" ry="10" fill="#FFFFDE" stroke="#AAAA33" stroke-width="1" /><text x="169.72" y="63.27" text-anchor="middle" font-family="trebuchet ms,verdana,arial,Noto Color Emoji,Apple Color Emoji,Segoe UI Emoji,sans-serif" font-size="16" fill="#333333"><tspan x="169.72" dy="0.00">Client</tspan></text><path id="edge-0" class="edgePath" data-edge-id="edge-0" d="M 166.720,106.813 L 175.603,106.813 Q 181.367,106.813 187.017,105.669 L 188.272,105.415 Q 193.922,104.271 199.687,104.271 L 208.569,104.271" fill="none" stroke="#2F3B4D" stroke-width="2"    stroke-linecap="round" stroke-linejoin="round" /><g transform="translate(208.57 104.27) rotate(0.00)"><polygon points="0,0 -7.50,3.90 -7.50,-3.90" fill="#2F3B4D" stroke="#2F3B4D" stroke-width="2" stroke-linejoin="round" stroke-linecap="round"/></g><path id="edge-1" class="edgePath" data-edge-id="edge-1" d="M 547.289,100.409 L 555.345,100.409 Q 561.937,100.409 568.487,101.146 L 603.500,105.089 Q 610.049,105.827 616.641,105.827 L 624.697,105.827" fill="none" stroke="#2F3B4D" stroke-width="2"    stroke-linecap="round" stroke-linejoin="round" /><g transform="translate(624.70 105.83) rotate(0.00)"><polygon points="0,0 -7.50,3.90 -7.50,-3.90" fill="#2F3B4D" stroke="#2F3B4D" stroke-width="2" stroke-linejoin="round" stroke-linecap="round"/></g><path id="edge-2" class="edgePath" data-edge-id="edge-2" d="M 711.577,88.996 L 719.633,88.996 Q 726.224,88.996 732.805,89.362 L 815.897,93.992 Q 822.478,94.359 829.069,94.359 L 837.125,94.359" fill="none" stroke="#2F3B4D" stroke-width="2"    stroke-linecap="round" stroke-linejoin="round" /><g transform="translate(837.12 94.36) rotate(0.00)"><polygon points="0,0 -7.50,3.90 -7.50,-3.90" fill="#2F3B4D" stroke="#2F3B4D" stroke-width="2" stroke-linejoin="round" stroke-linecap="round"/></g><path id="edge-3" class="edgePath" data-edge-id="edge-3" d="M 295.449,104.271 L 303.505,104.271 Q 310.097,104.271 316.652,104.957 L 430.247,116.860 Q 436.802,117.547 443.393,117.547 L 451.449,117.547" fill="none" stroke="#2F3B4D" stroke-width="2"    stroke-linecap="round" stroke-linejoin="round" /><g transform="translate(451.45 117.55) rotate(0.00)"><polygon points="0,0 -7.50,3.90 -7.50,-3.90" fill="#2F3B4D" stroke="#2F3B4D" stroke-width="2" stroke-linejoin="round" stroke-linecap="round"/></g><rect data-edge-id="edge-3" data-label-kind="center" x="373.54" y="80.61" width="35.88" height="28.40" rx="2" ry="2" fill="rgba(248,250,252, 0.92)" fill-opacity="0.00" stroke="#7B88A8" stroke-opacity="0.00" stroke-width="0.8"/><g class="edgeLabel" data-edge-id="edge-3" data-label-kind="center"><text x="391.48" y="98.81" text-anchor="middle" font-family="trebuchet ms,verdana,arial,Noto Color Emoji,Apple Color Emoji,Segoe UI Emoji,sans-serif" font-size="16" fill="#333333"><tspan x="391.48" dy="0.00">JWT</tspan></text></g><path id="edge-4" class="edgePath" data-edge-id="edge-4" d="M 547.289,106.178 L 555.345,106.178 Q 561.937,106.178 568.437,107.268 L 603.549,113.153 Q 610.049,114.243 616.641,114.243 L 624.697,114.243" fill="none" stroke="#2F3B4D" stroke-width="2"    stroke-linecap="round" stroke-linejoin="round" /><g transform="translate(624.70 114.24) rotate(0.00)"><polygon points="0,0 -7.50,3.90 -7.50,-3.90" fill="#2F3B4D" stroke="#2F3B4D" stroke-width="2" stroke-linejoin="round" stroke-linecap="round"/></g><rect data-edge-id="edge-4" data-label-kind="center" x="551.21" y="116.32" width="62.76" height="28.40" rx="2" ry="2" fill="rgba(248,250,252, 0.92)" fill-opacity="0.00" stroke="#7B88A8" stroke-opacity="0.00" stroke-width="0.8"/><g class="edgeLabel" data-edge-id="edge-4" data-label-kind="center"><text x="582.59" y="134.52" text-anchor="middle" font-family="trebuchet ms,verdana,arial,Noto Color Emoji,Apple Color Emoji,Segoe UI Emoji,sans-serif" font-size="16" fill="#333333"><tspan x="582.59" dy="0.00">stream</tspan></text></g><path id="edge-5" class="edgePath" data-edge-id="edge-5" d="M 711.577,97.411 L 719.633,97.411 Q 726.224,97.411 732.756,98.290 L 815.945,109.480 Q 822.478,110.359 829.069,110.359 L 837.125,110.359" fill="none" stroke="#2F3B4D" stroke-width="2"    stroke-linecap="round" stroke-linejoin="round" /><g transform="translate(837.12 110.36) rotate(0.00)"><polygon points="0,0 -7.50,3.90 -7.50,-3.90" fill="#2F3B4D" stroke="#2F3B4D" stroke-width="2" stroke-linejoin="round" stroke-linecap="round"/></g><rect data-edge-id="edge-5" data-label-kind="center" x="743.54" y="112.26" width="116.52" height="28.40" rx="2" ry="2" fill="rgba(248,250,252, 0.92)" fill-opacity="0.00" stroke="#7B88A8" stroke-opacity="0.00" stroke-width="0.8"/><g class="edgeLabel" data-edge-id="edge-5" data-label-kind="center"><text x="801.80" y="130.46" text-anchor="middle" font-family="trebuchet ms,verdana,arial,Noto Color Emoji,Apple Color Emoji,Segoe UI Emoji,sans-serif" font-size="16" fill="#333333"><tspan x="801.80" dy="0.00">read-through</tspan></text></g><path id="edge-6" class="edgePath" data-edge-id="edge-6" d="M 711.577,122.389 L 719.633,122.389 Q 726.224,122.389 726.224,128.981 L 726.224,188.639 Q 726.224,198.639 736.224,198.639 L 1108.405,198.639" fill="none" stroke="#2F3B4D" stroke-width="2"    stroke-linecap="round" stroke-linejoin="round" /><g transform="translate(1108.41 198.64) rotate(0.00)"><polygon points="0,0 -7.50,3.90 -7.50,-3.90" fill="#2F3B4D" stroke="#2F3B4D" stroke-width="2" stroke-linejoin="round" stroke-linecap="round"/></g><rect data-edge-id="edge-6" data-label-kind="center" x="893.75" y="200.64" width="53.80" height="28.40" rx="2" ry="2" fill="rgba(248,250,252, 0.92)" fill-opacity="0.00" stroke="#7B88A8" stroke-opacity="0.00" stroke-width="0.8"/><g class="edgeLabel" data-edge-id="edge-6" data-label-kind="center"><text x="920.65" y="218.84" text-anchor="middle" font-family="trebuchet ms,verdana,arial,Noto Color Emoji,Apple Color Emoji,Segoe UI Emoji,sans-serif" font-size="16" fill="#333333"><tspan x="920.65" dy="0.00">write</tspan></text></g><path id="edge-7" class="edgePath" data-edge-id="edge-7" d="M 878.765,64.659 L 878.765,48.400 Q 878.765,38.400 868.765,38.400 L 720.577,38.400 Q 710.577,38.400 710.577,48.400 L 710.577,71.043" fill="none" stroke="#2F3B4D" stroke-width="2"    stroke-linecap="round" stroke-linejoin="round" /><g transform="translate(710.58 71.04) rotate(90.00)"><polygon points="0,0 -7.50,3.90 -7.50,-3.90" fill="#2F3B4D" stroke="#2F3B4D" stroke-width="2" stroke-linejoin="round" stroke-linecap="round"/></g><rect data-edge-id="edge-7" data-label-kind="center" x="749.85" y="8.00" width="89.64" height="28.40" rx="2" ry="2" fill="rgba(248,250,252, 0.92)" fill-opacity="0.00" stroke="#7B88A8" stroke-opacity="0.00" stroke-width="0.8"/><g class="edgeLabel" data-edge-id="edge-7" data-label-kind="center"><text x="794.67" y="26.20" text-anchor="middle" font-family="trebuchet ms,verdana,arial,Noto Color Emoji,Apple Color Emoji,Segoe UI Emoji,sans-serif" font-size="16" fill="#333333"><tspan x="794.67" dy="0.00">rehydrate</tspan></text></g><path id="edge-8" class="edgePath" data-edge-id="edge-8" d="M 1243.397,190.888 L 1251.453,190.888 Q 1258.044,190.888 1264.564,189.919 L 1337.479,179.079 Q 1343.999,178.109 1350.590,178.109 L 1358.646,178.109" fill="none" stroke="#2F3B4D" stroke-width="2"    stroke-linecap="round" stroke-linejoin="round" /><g transform="translate(1358.65 178.11) rotate(0.00)"><polygon points="0,0 -7.50,3.90 -7.50,-3.90" fill="#2F3B4D" stroke="#2F3B4D" stroke-width="2" stroke-linejoin="round" stroke-linecap="round"/></g><rect data-edge-id="edge-8" data-label-kind="center" x="1249.46" y="147.90" width="100.60" height="28.40" rx="2" ry="2" fill="rgba(248,250,252, 0.92)" fill-opacity="0.00" stroke="#7B88A8" stroke-opacity="0.00" stroke-width="0.8"/><g class="edgeLabel" data-edge-id="edge-8" data-label-kind="center"><text x="1299.76" y="166.10" text-anchor="middle" font-family="trebuchet ms,verdana,arial,Noto Color Emoji,Apple Color Emoji,Segoe UI Emoji,sans-serif" font-size="16" fill="#333333"><tspan x="1299.76" dy="0.00">cold sync</tspan></text></g><rect x="44.00" y="79.81" width="122.72" height="54.00" rx="3" ry="3" fill="#ECECFF" stroke="#7B88A8" stroke-width="1" stroke-linejoin="round" stroke-linecap="round"/><text x="105.36" y="110.81" text-anchor="middle" font-family="trebuchet ms,verdana,arial,Noto Color Emoji,Apple Color Emoji,Segoe UI Emoji,sans-serif" font-size="16" fill="#333333"><tspan x="105.36" dy="0.00">Browser</tspan></text><rect x="208.57" y="77.27" width="86.88" height="54.00" rx="3" ry="3" fill="#ECECFF" stroke="#7B88A8" stroke-width="1" stroke-linejoin="round" stroke-linecap="round"/><text x="252.01" y="108.27" text-anchor="middle" font-family="trebuchet ms,verdana,arial,Noto Color Emoji,Apple Color Emoji,Segoe UI Emoji,sans-serif" font-size="16" fill="#333333"><tspan x="252.01" dy="0.00">SDK</tspan></text><rect x="451.45" y="74.35" width="95.84" height="54.00" rx="3" ry="3" fill="#ECECFF" stroke="#7B88A8" stroke-width="1" stroke-linejoin="round" stroke-linecap="round"/><text x="499.37" y="105.35" text-anchor="middle" font-family="trebuchet ms,verdana,arial,Noto Color Emoji,Apple Color Emoji,Segoe UI Emoji,sans-serif" font-size="16" fill="#333333"><tspan x="499.37" dy="0.00">Edge</tspan></text><rect x="624.70" y="71.04" width="86.88" height="54.00" rx="3" ry="3" fill="#ECECFF" stroke="#7B88A8" stroke-width="1" stroke-linejoin="round" stroke-linecap="round"/><text x="668.14" y="102.04" text-anchor="middle" font-family="trebuchet ms,verdana,arial,Noto Color Emoji,Apple Color Emoji,Segoe UI Emoji,sans-serif" font-size="16" fill="#333333"><tspan x="668.14" dy="0.00">App</tspan></text><ellipse cx="894.77" cy="71.79" rx="57.64" ry="7.13" fill="#ECECFF" stroke="#7B88A8" stroke-width="1" stroke-linejoin="round" stroke-linecap="round"/><rect x="837.12" y="71.79" width="115.28" height="45.14" fill="#ECECFF" stroke="#7B88A8" stroke-width="1" stroke-linejoin="round" stroke-linecap="round"/><ellipse cx="894.77" cy="116.93" rx="57.64" ry="7.13" fill="none" stroke="#7B88A8" stroke-width="1" stroke-linejoin="round" stroke-linecap="round"/><text x="894.77" y="98.36" text-anchor="middle" font-family="trebuchet ms,verdana,arial,Noto Color Emoji,Apple Color Emoji,Segoe UI Emoji,sans-serif" font-size="16" fill="#333333"><tspan x="894.77" dy="0.00">Cache</tspan></text><ellipse cx="1175.90" cy="173.04" rx="67.50" ry="7.13" fill="#ECECFF" stroke="#7B88A8" stroke-width="1" stroke-linejoin="round" stroke-linecap="round"/><rect x="1108.41" y="173.04" width="134.99" height="45.14" fill="#ECECFF" stroke="#7B88A8" stroke-width="1" stroke-linejoin="round" stroke-linecap="round"/><ellipse cx="1175.90" cy="218.18" rx="67.50" ry="7.13" fill="none" stroke="#7B88A8" stroke-width="1" stroke-linejoin="round" stroke-linecap="round"/><text x="1175.90" y="199.61" text-anchor="middle" font-family="trebuchet ms,verdana,arial,Noto Color Emoji,Apple Color Emoji,Segoe UI Emoji,sans-serif" font-size="16" fill="#333333"><tspan x="1175.90" dy="0.00">Primary</tspan></text><ellipse cx="1426.14" cy="155.54" rx="67.50" ry="7.13" fill="#ECECFF" stroke="#7B88A8" stroke-width="1" stroke-linejoin="round" stroke-linecap="round"/><rect x="1358.65" y="155.54" width="134.99" height="45.14" fill="#ECECFF" stroke="#7B88A8" stroke-width="1" stroke-linejoin="round" stroke-linecap="round"/><ellipse cx="1426.14" cy="200.68" rx="67.50" ry="7.13" fill="none" stroke="#7B88A8" stroke-width="1" stroke-linejoin="round" stroke-linecap="round"/><text x="1426.14" y="182.11" text-anchor="middle" font-family="trebuchet ms,verdana,arial,Noto Color Emoji,Apple Color Emoji,Segoe UI Emoji,sans-serif" font-size="16" fill="#333333"><tspan x="1426.14" dy="0.00">Archive</tspan></text></svg>