<svg xmlns="http://www.w3.org/2000/svg" width="1200" height="800" viewBox="0 0 514.72 308.1152"><rect x="0" y="0" width="514.72" height="308.1152" fill="#FFFFFF"/><defs><marker id="arrow-0" viewBox="0 0 10 10" refX="5" refY="5" markerUnits="userSpaceOnUse" markerWidth="8" markerHeight="8" orient="auto"><path d="M 0 0 L 10 5 L 0 10 z" fill="#2F3B4D" stroke="#2F3B4D" stroke-width="1" stroke-dasharray="1,0"/></marker><marker id="arrow-start-0" viewBox="0 0 10 10" refX="4.5" refY="5" markerUnits="userSpaceOnUse" markerWidth="8" markerHeight="8" orient="auto"><path d="M 0 5 L 10 10 L 10 0 z" fill="#2F3B4D" stroke="#2F3B4D" stroke-width="1" stroke-dasharray="1,0"/></marker></defs><path id="edge-0" class="edgePath" data-edge-id="edge-0" d="M 59.634,120.147 L 59.634,113.510 Q 59.634,108.079 63.814,104.613 L 108.586,67.485 Q 112.766,64.019 112.766,58.588 L 112.766,51.951" fill="none" stroke="#2F3B4D" stroke-width="2"    stroke-linecap="round" stroke-linejoin="round" /><g transform="translate(112.77 51.95) rotate(-90.00)"><polygon points="0,0 -7.50,3.90 -7.50,-3.90" fill="#2F3B4D" stroke="#2F3B4D" stroke-width="2" stroke-linejoin="round" stroke-linecap="round"/></g><path id="edge-1" class="edgePath" data-edge-id="edge-1" d="M 76.960,150.058 L 111.440,150.058" fill="none" stroke="#2F3B4D" stroke-width="2"    stroke-linecap="round" stroke-linejoin="round" /><g transform="translate(111.44 150.06) rotate(0.00)"><polygon points="0,0 -7.50,3.90 -7.50,-3.90" fill="#2F3B4D" stroke="#2F3B4D" stroke-width="2" stroke-linejoin="round" stroke-linecap="round"/></g><path id="edge-2" class="edgePath" data-edge-id="edge-2" d="M 58.480,180.601 L 58.480,187.238 Q 58.480,192.669 62.721,196.061 L 108.526,232.704 Q 112.766,236.097 112.766,241.527 L 112.766,248.165" fill="none" stroke="#2F3B4D" stroke-width="2"    stroke-linecap="round" stroke-linejoin="round" /><g transform="translate(112.77 248.16) rotate(90.00)"><polygon points="0,0 -7.50,3.90 -7.50,-3.90" fill="#2F3B4D" stroke="#2F3B4D" stroke-width="2" stroke-linejoin="round" stroke-linecap="round"/></g><path id="edge-3" class="edgePath" data-edge-id="edge-3" d="M 175.372,60.410 L 182.009,60.410 Q 187.440,60.410 191.225,64.303 L 202.963,76.375 Q 206.749,80.269 212.180,80.269 L 218.817,80.269" fill="none" stroke="#2F3B4D" stroke-width="2"    stroke-linecap="round" stroke-linejoin="round" /><g transform="translate(218.82 80.27) rotate(0.00)"><polygon points="0,0 -7.50,3.90 -7.50,-3.90" fill="#2F3B4D" stroke="#2F3B4D" stroke-width="2" stroke-linejoin="round" stroke-linecap="round"/></g><path id="edge-4" class="edgePath" data-edge-id="edge-4" d="M 174.069,130.145 L 180.707,130.145 Q 186.137,130.145 186.137,124.715 L 186.137,120.313 Q 186.137,112.269 194.182,112.269 L 218.817,112.269" fill="none" stroke="#2F3B4D" stroke-width="2"    stroke-linecap="round" stroke-linejoin="round" /><g transform="translate(218.82 112.27) rotate(0.00)"><polygon points="0,0 -7.50,3.90 -7.50,-3.90" fill="#2F3B4D" stroke="#2F3B4D" stroke-width="2" stroke-linejoin="round" stroke-linecap="round"/></g><path id="edge-5" class="edgePath" data-edge-id="edge-5" d="M 175.641,240.155 L 187.740,240.155 Q 197.640,240.155 197.640,230.256 L 197.640,123.648 Q 197.640,113.749 207.540,113.749 L 219.639,113.749" fill="none" stroke="#2F3B4D" stroke-width="2"    stroke-linecap="round" stroke-linejoin="round" /><g transform="translate(219.64 113.75) rotate(0.00)"><polygon points="0,0 -7.50,3.90 -7.50,-3.90" fill="#2F3B4D" stroke="#2F3B4D" stroke-width="2" stroke-linejoin="round" stroke-linecap="round"/></g><path id="edge-6" class="edgePath" data-edge-id="edge-6" d="M 175.641,59.960 L 183.340,59.960 Q 189.640,59.960 189.640,66.260 L 189.640,176.366 Q 189.640,186.366 199.640,186.366 L 219.639,186.366" fill="none" stroke="#2F3B4D" stroke-width="2"    stroke-linecap="round" stroke-linejoin="round" /><g transform="translate(219.64 186.37) rotate(0.00)"><polygon points="0,0 -7.50,3.90 -7.50,-3.90" fill="#2F3B4D" stroke="#2F3B4D" stroke-width="2" stroke-linejoin="round" stroke-linecap="round"/></g><path id="edge-7" class="edgePath" data-edge-id="edge-7" d="M 173.504,170.746 L 180.141,170.746 Q 185.572,170.746 190.060,173.803 L 203.352,182.859 Q 207.840,185.917 213.271,185.917 L 219.908,185.917" fill="none" stroke="#2F3B4D" stroke-width="2"    stroke-linecap="round" stroke-linejoin="round" /><g transform="translate(219.91 185.92) rotate(0.00)"><polygon points="0,0 -7.50,3.90 -7.50,-3.90" fill="#2F3B4D" stroke="#2F3B4D" stroke-width="2" stroke-linejoin="round" stroke-linecap="round"/></g><path id="edge-8" class="edgePath" data-edge-id="edge-8" d="M 175.372,239.706 L 182.009,239.706 Q 187.440,239.706 191.519,236.121 L 203.761,225.361 Q 207.840,221.776 213.271,221.776 L 219.908,221.776" fill="none" stroke="#2F3B4D" stroke-width="2"    stroke-linecap="round" stroke-linejoin="round" /><g transform="translate(219.91 221.78) rotate(0.00)"><polygon points="0,0 -7.50,3.90 -7.50,-3.90" fill="#2F3B4D" stroke="#2F3B4D" stroke-width="2" stroke-linejoin="round" stroke-linecap="round"/></g><path id="edge-9" class="edgePath" data-edge-id="edge-9" d="M 278.812,114.198 L 285.449,114.198 Q 290.880,114.198 294.665,118.092 L 306.403,130.164 Q 310.189,134.058 315.620,134.058 L 322.257,134.058" fill="none" stroke="#2F3B4D" stroke-width="2"    stroke-linecap="round" stroke-linejoin="round" /><g transform="translate(322.26 134.06) rotate(0.00)"><polygon points="0,0 -7.50,3.90 -7.50,-3.90" fill="#2F3B4D" stroke="#2F3B4D" stroke-width="2" stroke-linejoin="round" stroke-linecap="round"/></g><path id="edge-10" class="edgePath" data-edge-id="edge-10" d="M 278.812,185.917 L 285.449,185.917 Q 290.880,185.917 294.959,182.332 L 307.201,171.572 Q 311.280,167.987 316.711,167.987 L 323.348,167.987" fill="none" stroke="#2F3B4D" stroke-width="2"    stroke-linecap="round" stroke-linejoin="round" /><g transform="translate(323.35 167.99) rotate(0.00)"><polygon points="0,0 -7.50,3.90 -7.50,-3.90" fill="#2F3B4D" stroke="#2F3B4D" stroke-width="2" stroke-linejoin="round" stroke-linecap="round"/></g><path id="edge-11" class="edgePath" data-edge-id="edge-11" d="M 387.280,150.058 L 421.760,150.058" fill="none" stroke="#2F3B4D" stroke-width="2"    stroke-linecap="round" stroke-linejoin="round" /><g transform="translate(421.76 150.06) rotate(0.00)"><polygon points="0,0 -7.50,3.90 -7.50,-3.90" fill="#2F3B4D" stroke="#2F3B4D" stroke-width="2" stroke-linejoin="round" stroke-linecap="round"/></g><path id="edge-12" class="edgePath" data-edge-id="edge-12" d="M 180.400,42.480 L 428.667,42.480 L 488.720,42.480 Q 498.720,42.480 498.720,52.480 L 498.720,182.538 Q 498.720,192.538 488.720,192.538 L 423.760,192.538 Q 413.760,192.538 413.760,182.538 L 413.760,136.665 Q 413.760,136.047 414.379,136.047 L 415.135,136.047 L 424.735,136.047" fill="none" stroke="#2F3B4D" stroke-width="2"    stroke-linecap="round" stroke-linejoin="round" /><g transform="translate(424.74 136.05) rotate(0.00)"><polygon points="0,0 -7.50,3.90 -7.50,-3.90" fill="#2F3B4D" stroke="#2F3B4D" stroke-width="2" stroke-linejoin="round" stroke-linecap="round"/></g><path id="edge-13" class="edgePath" data-edge-id="edge-13" d="M 180.400,150.058 L 187.783,150.058 Q 190.972,150.058 190.972,146.869 L 190.972,146.161 Q 190.972,142.972 194.161,142.972 L 292.972,142.972 Q 302.972,142.972 302.972,132.972 L 302.972,104.972 Q 302.972,94.972 312.972,94.972 L 404.972,94.972 Q 414.972,94.972 414.972,104.972 L 414.972,129.231 Q 414.972,134.058 419.798,134.058 L 425.697,134.058" fill="none" stroke="#2F3B4D" stroke-width="2"    stroke-linecap="round" stroke-linejoin="round" /><g transform="translate(425.70 134.06) rotate(0.00)"><polygon points="0,0 -7.50,3.90 -7.50,-3.90" fill="#2F3B4D" stroke="#2F3B4D" stroke-width="2" stroke-linejoin="round" stroke-linecap="round"/></g><path id="edge-14" class="edgePath" data-edge-id="edge-14" d="M 180.400,257.635 L 408.378,257.635 Q 418.378,257.635 418.378,247.635 L 418.378,185.965 Q 418.378,178.011 426.332,178.011 L 436.053,178.011" fill="none" stroke="#2F3B4D" stroke-width="2"    stroke-linecap="round" stroke-linejoin="round" /><g transform="translate(436.05 178.01) rotate(0.00)"><polygon points="0,0 -7.50,3.90 -7.50,-3.90" fill="#2F3B4D" stroke="#2F3B4D" stroke-width="2" stroke-linejoin="round" stroke-linecap="round"/></g><circle cx="42.48" cy="150.06" r="34.48" fill="#ECECFF" stroke="#7B88A8" stroke-width="1" stroke-linejoin="round" stroke-linecap="round"/><circle cx="42.48" cy="150.06" r="30.48" fill="none" stroke="#7B88A8" stroke-width="1" stroke-linejoin="round" stroke-linecap="round"/><text x="42.48" y="154.06" text-anchor="middle" font-family="trebuchet ms,verdana,arial,Noto Color Emoji,Apple Color Emoji,Segoe UI Emoji,sans-serif" font-size="16" fill="#333333"><tspan x="42.48" dy="0.00">A</tspan></text><circle cx="145.92" cy="42.48" r="34.48" fill="#ECECFF" stroke="#7B88A8" stroke-width="1" stroke-linejoin="round" stroke-linecap="round"/><circle cx="145.92" cy="42.48" r="30.48" fill="none" stroke="#7B88A8" stroke-width="1" stroke-linejoin="round" stroke-linecap="round"/><text x="145.92" y="46.48" text-anchor="middle" font-family="trebuchet ms,verdana,arial,Noto Color Emoji,Apple Color Emoji,Segoe UI Emoji,sans-serif" font-size="16" fill="#333333"><tspan x="145.92" dy="0.00">B</tspan></text><circle cx="145.92" cy="150.06" r="34.48" fill="#ECECFF" stroke="#7B88A8" stroke-width="1" stroke-linejoin="round" stroke-linecap="round"/><circle cx="145.92" cy="150.06" r="30.48" fill="none" stroke="#7B88A8" stroke-width="1" stroke-linejoin="round" stroke-linecap="round"/><text x="145.92" y="154.06" text-anchor="middle" font-family="trebuchet ms,verdana,arial,Noto Color Emoji,Apple Color Emoji,Segoe UI Emoji,sans-serif" font-size="16" fill="#333333"><tspan x="145.92" dy="0.00">C</tspan></text><circle cx="145.92" cy="257.64" r="34.48" fill="#ECECFF" stroke="#7B88A8" stroke-width="1" stroke-linejoin="round" stroke-linecap="round"/><circle cx="145.92" cy="257.64" r="30.48" fill="none" stroke="#7B88A8" stroke-width="1" stroke-linejoin="round" stroke-linecap="round"/><text x="145.92" y="261.64" text-anchor="middle" font-family="trebuchet ms,verdana,arial,Noto Color Emoji,Apple Color Emoji,Segoe UI Emoji,sans-serif" font-size="16" fill="#333333"><tspan x="145.92" dy="0.00">D</tspan></text><circle cx="249.36" cy="96.27" r="34.48" fill="#ECECFF" stroke="#7B88A8" stroke-width="1" stroke-linejoin="round" stroke-linecap="round"/><circle cx="249.36" cy="96.27" r="30.48" fill="none" stroke="#7B88A8" stroke-width="1" stroke-linejoin="round" stroke-linecap="round"/><text x="249.36" y="100.27" text-anchor="middle" font-family="trebuchet ms,verdana,arial,Noto Color Emoji,Apple Color Emoji,Segoe UI Emoji,sans-serif" font-size="16" fill="#333333"><tspan x="249.36" dy="0.00">E</tspan></text><circle cx="249.36" cy="203.85" r="34.48" fill="#ECECFF" stroke="#7B88A8" stroke-width="1" stroke-linejoin="round" stroke-linecap="round"/><circle cx="249.36" cy="203.85" r="30.48" fill="none" stroke="#7B88A8" stroke-width="1" stroke-linejoin="round" stroke-linecap="round"/><text x="249.36" y="207.85" text-anchor="middle" font-family="trebuchet ms,verdana,arial,Noto Color Emoji,Apple Color Emoji,Segoe UI Emoji,sans-serif" font-size="16" fill="#333333"><tspan x="249.36" dy="0.00">F</tspan></text><circle cx="352.80" cy="150.06" r="34.48" fill="#ECECFF" stroke="#7B88A8" stroke-width="1" stroke-linejoin="round" stroke-linecap="round"/><circle cx="352.80" cy="150.06" r="30.48" fill="none" stroke="#7B88A8" stroke-width="1" stroke-linejoin="round" stroke-linecap="round"/><text x="352.80" y="154.06" text-anchor="middle" font-family="trebuchet ms,verdana,arial,Noto Color Emoji,Apple Color Emoji,Segoe UI Emoji,sans-serif" font-size="16" fill="#333333"><tspan x="352.80" dy="0.00">G</tspan></text><circle cx="456.24" cy="150.06" r="34.48" fill="#ECECFF" stroke="#7B88A8" stroke-width="1" stroke-linejoin="round" stroke-linecap="round"/><circle cx="456.24" cy="150.06" r="30.48" fill="none" stroke="#7B88A8" stroke-width="1" stroke-linejoin="round" stroke-linecap="round"/><text x="456.24" y="154.06" text-anchor="middle" font-family="trebuchet ms,verdana,arial,Noto Color Emoji,Apple Color Emoji,Segoe UI Emoji,sans-serif" font-size="16" fill="#333333"><tspan x="456.24" dy="0.00">H</tspan></text></svg>